<?xml version="1.0" encoding="UTF-8"?>
<svg xmlns="http://www.w3.org/2000/svg" xmlns:xlink="http://www.w3.org/1999/xlink" viewBox="0 0 500 500">
  <defs>
    <style>
      .cls-1, .cls-2 {
        fill: #fdf3ea;
      }

      .cls-3 {
        fill: #738c81;
      }

      .cls-4 {
        fill: #7817e6;
      }

      .cls-5 {
        fill: #e6ffa8;
      }

      .cls-6 {
        fill: #e8d1bc;
      }

      .cls-7, .cls-8, .cls-9, .cls-10, .cls-11, .cls-12, .cls-13, .cls-14, .cls-15 {
        stroke-linecap: round;
      }

      .cls-7, .cls-8, .cls-10, .cls-11, .cls-12, .cls-13, .cls-2, .cls-14, .cls-15 {
        stroke: #0b2b20;
        stroke-width: 2px;
      }

      .cls-7, .cls-8, .cls-10, .cls-11, .cls-12, .cls-2, .cls-15 {
        stroke-miterlimit: 10;
      }

      .cls-7, .cls-16 {
        fill: #ff94f2;
      }

      .cls-17 {
        fill: #eb7e57;
      }

      .cls-18, .cls-9, .cls-12, .cls-13 {
        fill: none;
      }

      .cls-19 {
        fill: #893c9d;
      }

      .cls-20 {
        fill: #ffefab;
      }

      .cls-21 {
        isolation: isolate;
      }

      .cls-22 {
        fill: #c1f43d;
      }

      .cls-8, .cls-23, .cls-14 {
        fill: #ea9d38;
      }

      .cls-24, .cls-15 {
        fill: #0b2b20;
      }

      .cls-9 {
        stroke: #fdf3ea;
        stroke-width: 1.5px;
      }

      .cls-9, .cls-13, .cls-14 {
        stroke-linejoin: round;
      }

      .cls-10, .cls-25 {
        fill: #eacc54;
      }

      .cls-11, .cls-26 {
        fill: #c5558d;
      }

      .cls-27 {
        fill: #db79aa;
      }

      .cls-28 {
        fill: url(#linear-gradient);
      }

      .cls-29 {
        fill: #f18cae;
      }

      .cls-30 {
        fill: #7384ff;
      }

      .cls-31 {
        mix-blend-mode: hard-light;
      }
    </style>
    <linearGradient id="linear-gradient" x1="56.47" y1="166.23" x2="160.35" y2="259.76" gradientUnits="userSpaceOnUse">
      <stop offset=".14" stop-color="#c4f547" stop-opacity="0"/>
      <stop offset=".22" stop-color="#c3f446" stop-opacity=".03"/>
      <stop offset=".34" stop-color="#c3f445" stop-opacity=".11"/>
      <stop offset=".47" stop-color="#c3f444" stop-opacity=".24"/>
      <stop offset=".62" stop-color="#c2f442" stop-opacity=".42"/>
      <stop offset=".79" stop-color="#c2f440" stop-opacity=".66"/>
      <stop offset=".97" stop-color="#c1f43d" stop-opacity=".94"/>
      <stop offset="1" stop-color="#c1f43d"/>
    </linearGradient>
  </defs>
  <g class="cls-21">
    <g id="OBJECTS">
      <ellipse class="cls-24" cx="259.46" cy="434.82" rx="124.78" ry="18.06"/>
      <g>
        <g>
          <g>
            <path class="cls-24" d="M256.12,292.8c-1.41,0-3-1.4-4.87-4.28-4.18-6.46-9.1-19.67-7.81-22.54.71-1.58,1.62-2.39,2.69-2.39.91,0,1.55.61,1.73.8l14.35,12.56c.17.15.27.38.25.61-.03.51-.75,12.52-5.38,15-.3.16-.62.24-.97.24h0Z"/>
            <path class="cls-24" d="M246.13,264.34c.7,0,1.2.59,1.2.59l14.38,12.59s-.67,12.07-4.99,14.38c-.19.1-.4.15-.61.15-4.56,0-13.43-22.57-11.99-25.77.69-1.53,1.41-1.95,2-1.95M246.13,262.84c-.96,0-2.32.49-3.37,2.83-1.49,3.32,3.9,17.12,7.86,23.26,2.04,3.15,3.79,4.62,5.5,4.62.47,0,.91-.11,1.32-.33,4.91-2.64,5.7-14.3,5.77-15.62.03-.46-.16-.91-.51-1.21l-14.32-12.53c-.29-.3-1.09-1.01-2.25-1.01h0Z"/>
          </g>
          <g>
            <path class="cls-23" d="M242.32,285.97c-9.46,0-18.43-3.6-19.33-3.97l-21.92-6.08-.19-.45c-.23-.57-5.68-14.04.29-18.93,1.51-1.24,3.09-1.87,4.67-1.87,3.31,0,5.54,2.73,6.11,3.51,1.69,1,15.02,8.8,25.36,10.96,2.26.47,4.34.71,6.18.71,5.35,0,6.97-2.04,6.98-2.06l.25-.33.42-.08c.18-.03.36-.04.54-.04,4.73,0,8.23,8.86,8.62,9.87l.19.5-.32.44c-3.74,5.19-9.75,7.82-17.85,7.82h0Z"/>
            <path class="cls-24" d="M205.85,255.67c3.28,0,5.41,3.26,5.41,3.26,0,0,14.54,8.83,25.85,11.19,2.53.53,4.63.73,6.38.73,6.07,0,7.79-2.47,7.79-2.47.13-.02.27-.03.4-.03,4.18,0,7.68,9.23,7.68,9.23-4.11,5.69-10.65,7.4-17.05,7.4-9.67,0-19-3.92-19-3.92l-21.5-5.97s-5.47-13.3,0-17.78c1.47-1.2,2.83-1.64,4.04-1.64M205.85,253.67h0c-1.82,0-3.61.7-5.3,2.09-6.43,5.26-1.2,18.58-.58,20.08l.37.91.94.26,21.39,5.93c1.2.49,10.18,4.03,19.65,4.03,8.45,0,14.73-2.77,18.67-8.23l.63-.87-.38-1.01c-.67-1.76-4.26-10.52-9.55-10.52-.23,0-.46.02-.68.05l-.96.14-.37.66c-.23.23-1.8,1.65-6.17,1.65-1.77,0-3.78-.23-5.97-.69-9.92-2.07-22.67-9.43-24.89-10.74-.82-1.06-3.24-3.75-6.78-3.75h0Z"/>
          </g>
          <g>
            <path class="cls-22" d="M257.6,292.32c-.21,0-.42-.07-.6-.2-.25-.19-.4-.48-.4-.79,0-.08-.15-8.35-3.12-14.93-2.93-6.51-8.52-10.41-8.58-10.45-.26-.18-.42-.46-.43-.77-.02-.31.11-.61.35-.81,14.88-12.7,26.57-15.65,27.06-15.77.08-.02.16-.03.24-.03.44,0,.84.29.96.73.21.76,5.07,18.83-1.36,29.82-6.42,10.98-13.56,13.07-13.86,13.15-.09.03-.18.04-.27.04Z"/>
            <path class="cls-24" d="M272.13,249.57s5.03,18.3-1.26,29.05c-6.29,10.75-13.27,12.7-13.27,12.7,0,0-.11-8.46-3.2-15.33s-8.92-10.87-8.92-10.87c14.87-12.7,26.65-15.56,26.65-15.56M272.13,247.57c-.16,0-.31.02-.47.06-.5.12-12.42,3.12-27.48,15.98-.47.4-.73,1-.7,1.63.03.62.35,1.19.87,1.54.05.04,5.42,3.8,8.23,10.04,2.87,6.39,3.03,14.45,3.03,14.53,0,.62.31,1.2.8,1.57.35.26.77.4,1.2.4.18,0,.36-.02.54-.07.32-.09,7.83-2.29,14.46-13.61,6.64-11.35,1.67-29.81,1.46-30.59-.24-.89-1.05-1.47-1.93-1.47h0Z"/>
          </g>
          <path class="cls-30" d="M272.13,249.57s-7.34,1.79-17.74,8.78c-1.23,2.18-1.8,4.48-.95,6.6,3.4,8.16,5.89,17.67,4.8,26.15,1.85-.75,7.47-3.64,12.63-12.47,6.29-10.75,1.26-29.05,1.26-29.05Z"/>
          <path class="cls-24" d="M257.32,255.67s7.85,4.62,8.05,12.75-.31,17.29-7.13,22.68c0,0,.25.73,1.97.23,1.72-.5,6.05-3.33,6.05-3.33,0,0-.91-18.04.51-23.65l3.16-14.15s-5.28.66-12.6,5.48Z"/>
          <path class="cls-24" d="M246.03,270.32s4.71,11.85-4.23,15.57c0,0,8.72.14,13.17-3.37,0,0-1.94-11.47-6.58-12.71l-2.35.51Z"/>
        </g>
        <g>
          <g>
            <path class="cls-25" d="M343.96,407.7c-2.98,0-5.51-.92-5.62-.96l-.21-.08-29.04-29.56c-6.21-4.6-5.73-9.93-5.71-10.16l.05-.49.42-.26c2.21-1.38,5.07-2.07,8.5-2.07,5.7,0,11,1.9,11.22,1.98l.19.07,29.12,26.87.08.21c.11.26,2.53,6.51-1.74,11.5-1.65,1.93-4.16,2.94-7.27,2.94h0Z"/>
            <path class="cls-24" d="M312.36,365.13c5.59,0,10.88,1.92,10.88,1.92l28.81,26.58s2.36,5.89-1.57,10.47c-1.74,2.03-4.25,2.6-6.51,2.6-2.84,0-5.27-.89-5.27-.89l-28.94-29.46c-5.89-4.32-5.37-9.3-5.37-9.3,2.31-1.44,5.18-1.92,7.97-1.92M312.36,363.13c-3.62,0-6.66.75-9.03,2.22l-.83.52-.1.97c-.03.25-.56,6.1,6.04,11.02l28.83,29.35.32.32.42.16c.11.04,2.81,1.02,5.96,1.02,3.4,0,6.18-1.14,8.03-3.29,4.66-5.44,2.02-12.23,1.91-12.52l-.17-.42-.33-.31-28.81-26.58-.3-.27-.38-.14c-.23-.08-5.69-2.04-11.56-2.04h0Z"/>
          </g>
          <path class="cls-23" d="M347.21,389.17c-.86.58-1.71.91-2.49.91-7.18-1.03-22.56-2.05-20.51-14.36.6-1.79,2.92-2.19,5.37-2.82l-6.34-5.85s-11.92-4.32-18.85,0c0,0-.52,4.98,5.37,9.3l28.94,29.46s7.86,2.88,11.78-1.7c3.93-4.58,1.57-10.47,1.57-10.47l-4.84-4.46Z"/>
          <path class="cls-24" d="M327.94,370.45s-15.73,5.62-12.86,13.07c0,0-9.15-8.83-9.47-11.17,0,0,18.93-.72,22.33-1.9Z"/>
          <path class="cls-20" d="M329.67,379.72c-.13.55.04,1.13.33,1.61.29.48.71.87,1.12,1.25.88.81,1.79,1.61,2.84,2.19,1.05.58,2.26.93,3.45.79.48-.06,1.02-.25,1.18-.7.16-.43-.08-.89-.33-1.27-1.13-1.77-2.6-3.34-4.3-4.57-1.24-.9-3.84-1.3-4.3.69Z"/>
        </g>
        <g>
          <path class="cls-24" d="M260.06,359.28c-8.65,0-27.54-22.56-27.63-25.82-.08-2.83,1.53-3.73,2.39-3.81.02,0,.11,0,.13,0,3.18.25,13.65,1.13,14.98,1.96,2.54,1.58,19.08,15.2,13.98,25.26-.8,1.58-2.13,2.41-3.84,2.41h0Z"/>
          <path class="cls-24" d="M234.89,330.4s13.36,1.05,14.64,1.85c1.28.8,18.75,14.36,13.71,24.29-.71,1.4-1.81,2-3.18,2-8.38,0-26.81-22.62-26.88-25.09-.08-2.87,1.71-3.04,1.71-3.04M234.89,328.9s-.1,0-.14,0c-1.1.11-3.16,1.2-3.07,4.58.07,2.46,7.26,10.81,10.74,14.46,5.24,5.51,12.55,12.09,17.64,12.09,2.02,0,3.58-.98,4.51-2.82,5.86-11.56-14.04-26.11-14.25-26.24-1.31-.82-9.05-1.58-15.32-2.07-.04,0-.08,0-.12,0h0Z"/>
        </g>
        <g>
          <g>
            <path class="cls-25" d="M230.81,386.21c-1.46,0-2.98-.62-4.5-1.83-5.07-4.04-3.47-16.36-2.64-18.23.8-1.81,15.76-36.57,15.91-36.92l.18-.42.44-.14c.98-.3,1.99-.45,2.99-.45,6.17,0,11.29,5.71,12.8,9.57.78,1.98.36,2.94-.13,3.39-1.36,1.51-13.3,26.52-20.99,42.95l-.04.09-.06.08c-.06.08-1.44,1.92-3.96,1.92h0Z"/>
            <path class="cls-24" d="M243.2,329.22c7.7,0,13.53,9.8,11.99,11.22-1.71,1.59-21.22,43.26-21.22,43.26,0,0-1.11,1.51-3.16,1.51-1.05,0-2.36-.4-3.88-1.61-4.49-3.57-3.16-15.2-2.35-17.04.82-1.84,15.92-36.93,15.92-36.93.92-.28,1.82-.41,2.7-.41M243.2,327.22c-1.11,0-2.21.17-3.29.5l-.88.27-.37.85c-.15.35-15.1,35.1-15.91,36.91-.91,2.05-2.64,14.99,2.93,19.41,1.71,1.36,3.43,2.05,5.13,2.05,2.97,0,4.59-2.09,4.77-2.33l.12-.16.08-.18c7.21-15.4,19.2-40.52,20.85-42.72.68-.69,1.25-2,.3-4.41-1.62-4.11-7.1-10.2-13.73-10.2h0Z"/>
          </g>
          <path class="cls-23" d="M240.5,329.63s-1.56,3.63-3.7,8.6c2.72,2.24,5.64,4.48,6.38,6.71,3.08,6.15-3.08,16.41-8.21,15.38-2.3-.92-3.99-2.67-5.79-4.41-2.41,5.59-4.32,10.02-4.6,10.64-.82,1.84-2.14,13.47,2.35,17.04s7.04.1,7.04.1c0,0,19.51-41.67,21.22-43.26,1.71-1.59-5.71-13.57-14.69-10.81Z"/>
          <path class="cls-24" d="M235.37,341.56s8.84-1.54,16.46,2.79c0,0-11.63-10.09-13.81-10.4-2.18-.31-2.66,7.61-2.66,7.61Z"/>
        </g>
        <g>
          <g>
            <path class="cls-17" d="M312.22,372.69c-14.86,0-18.5-7.42-18.65-7.74-.09-.19-.12-.41-.08-.62l3.79-18.76c-3.43-.51-8.03-2.19-9.5-2.75l-24.02,14.57c-.16.1-.34.14-.52.14s-.37-.05-.53-.15c-.32-.2-.5-.56-.47-.93,0-.03.18-4.19-6.03-9.56-6.63-5.74-21.71-15.55-21.87-15.65-.22-.15-.38-.38-.43-.64-.05-.26,0-.53.15-.76,5.37-8.06,35.02-13.59,36.28-13.82.06-.01.12-.02.18-.02.06,0,.13,0,.19.02l67.36,13c.5.1.84.55.81,1.05l-2.31,33.49c0,.09-.02.17-.05.26-.1.3-2.76,7.4-20.64,8.73-1.25.09-2.48.14-3.65.14h0Z"/>
            <path class="cls-24" d="M270.52,317l67.36,13-2.31,33.49s-2.34,6.76-19.76,8.06c-1.26.09-2.45.14-3.58.14-14.39,0-17.75-7.16-17.75-7.16l4.01-19.83c-3.9-.26-10.79-2.99-10.79-2.99l-24.45,14.82s.39-4.55-6.37-10.4c-6.76-5.85-21.98-15.73-21.98-15.73,5.2-7.8,35.63-13.39,35.63-13.39M270.52,315c-.12,0-.24.01-.36.03-3.2.59-31.42,5.98-36.93,14.25-.3.44-.4.99-.29,1.51.11.52.42.98.87,1.27.15.1,15.18,9.88,21.76,15.57,5.75,4.97,5.69,8.73,5.68,8.77-.1.76.25,1.45.89,1.87.3.2.65.29,1,.29.39,0,.79-.12,1.14-.33l23.61-14.32c1.65.61,5.17,1.86,8.21,2.45l-3.59,17.76c-.08.42-.03.86.15,1.25.16.34,4.08,8.31,19.56,8.31,1.2,0,2.45-.05,3.73-.14,18.21-1.36,21.22-8.58,21.51-9.4.06-.17.09-.34.11-.52l2.31-33.49c.07-1.01-.62-1.91-1.62-2.1l-67.36-13c-.13-.02-.25-.04-.38-.04h0Z"/>
          </g>
          <path class="cls-19" d="M270.52,317s-3.61.66-8.56,1.85c4.57,4.5,8.18,10.41,5.84,12.76-5.32,4.56-11.77,7.01-18.72,8.49,2.93,2.12,5.75,4.26,7.79,6.03,6.76,5.85,6.37,10.4,6.37,10.4l24.45-14.82s6.89,2.73,10.79,2.99l-4.01,19.83s.91,1.94,3.81,3.8c.54-11.85,3.56-22.67,12.59-27.49,5.05-3.37,16.32-1.21,26.43-2.6l.57-8.24-67.36-13Z"/>
          <polygon class="cls-12" points="288.48 325.15 287.68 341.71 293.66 343.73 293.66 327.28 288.48 325.15"/>
          <path class="cls-12" d="M288.03,334.44s-16.65,12-28.57,14.24"/>
          <path class="cls-12" d="M328.85,368.81c.17-.07,2.32-26.19,2.32-26.19"/>
          <path class="cls-12" d="M325.62,332.78s.68,11.89,11.39,9.84"/>
          <line class="cls-12" x1="297.22" y1="345.79" x2="299.6" y2="333.49"/>
          <path class="cls-24" d="M277.86,326.64s9.17,11.11,6.2,18.52l3.97-2.53.66-12.22-10.83-3.76Z"/>
        </g>
        <g>
          <g>
            <path class="cls-17" d="M201.18,396.73l-16.04-15.1-.07-.29c-.05-.2-5.22-20.2-23.93-25.73l-1.24-.37.67-1.11c.2-.34,5.06-8.25,12.59-8.25.88,0,1.77.11,2.65.33,3.47.87,8.66,3.61,14.16,6.52,7.67,4.06,16.31,8.63,22.07,9.12.25-2.75,2.01-6.71,7.58-7.14.2-.02.4-.02.59-.02,3.48,0,6.88,2.35,8.88,6.13,2.22,4.2,2.12,9.11-.23,12.96,1.45,2.42,4.17,5.77,6.23,5.77.08,0,.16,0,.24-.02,1.29-.17,2.37-.78,3.41-1.37,1.02-.57,1.98-1.12,3-1.12.92,0,1.74.44,2.44,1.31,1.43,1.79.61,7.2.33,8.82-1.43,8.11-5.78,18.48-13.68,23.3l-.46.28-29.17-14.05Z"/>
            <path class="cls-24" d="M173.17,346.89c.77,0,1.58.09,2.4.3,8.38,2.1,27.5,15.71,37.45,15.71,0,0-.39-6.64,6.68-7.18.17-.01.34-.02.52-.02,6.85,0,12.71,10.41,7.47,18.07,0,0,3.77,6.8,7.4,6.8.12,0,.25,0,.37-.02,2.78-.37,4.65-2.47,6.28-2.47.57,0,1.11.26,1.65.93,2.1,2.62-1.05,23.31-13.09,30.64l-28.54-13.75-15.71-14.8s-5.11-20.69-24.62-26.45c0,0,4.68-7.76,11.74-7.76M173.17,344.89h0c-8.09,0-13.24,8.37-13.45,8.73l-1.34,2.22,2.48.73c18.2,5.37,23.19,24.81,23.24,25.01l.14.57.43.4,15.71,14.8.22.21.28.13,28.54,13.75.98.47.93-.57c8.19-4.98,12.68-15.65,14.14-23.98.48-2.74,1.06-7.64-.53-9.62-.89-1.12-1.98-1.68-3.22-1.68s-2.41.63-3.5,1.25c-.96.54-1.95,1.1-3.05,1.25-.04,0-.07,0-.11,0-1.39,0-3.62-2.54-5.07-4.79,2.23-4.06,2.24-9.09-.05-13.41-2.17-4.11-5.91-6.67-9.76-6.67-.22,0-.45,0-.67.03-5.58.43-7.75,4.05-8.35,7.03-5.53-.84-13.58-5.1-20.76-8.9-5.79-3.06-10.79-5.71-14.38-6.61-.96-.24-1.93-.36-2.89-.36h0Z"/>
          </g>
          <g>
            <path class="cls-30" d="M216.03,403.88l.9-.99c8.36-9.23,19.35-11.01,25.15-11.25l1.43-.06-.43,1.36c-1.49,4.68-5.06,13.18-12.26,17.56l-.46.28-14.33-6.9Z"/>
            <path class="cls-24" d="M242.12,392.64c-2.04,6.39-5.82,13.35-11.82,17.01l-12.63-6.08c8.07-8.9,18.66-10.68,24.45-10.92M244.9,390.52l-2.86.12c-5.96.25-17.25,2.08-25.85,11.58l-1.8,1.98,2.41,1.16,12.63,6.08.98.47.93-.57c7.47-4.55,11.16-13.3,12.69-18.11l.87-2.72h0Z"/>
          </g>
          <g>
            <path class="cls-1" d="M193.24,362.85c-.31,0-.65-.07-1.04-.21-4.27-1.52-18.23-10.51-19.67-12.66-.63-.95-.52-1.71-.31-2.19.54-1.24,2.23-1.61,2.73-1.69.05,0,.11-.01.16-.01.07,0,.13,0,.2.02l.12.02c.12.02.25.05.37.08,3.12.78,7.5,3.01,12.09,5.43.08.04.16.1.22.16,2.14,2.03,7.48,7.82,6.55,10.12-.23.58-.77.92-1.44.92h0Z"/>
            <path class="cls-24" d="M175.12,347.09c.15.03.29.06.44.09,2.93.73,7.17,2.87,11.87,5.35,4.61,4.39,7.67,9.32,5.8,9.32-.18,0-.42-.05-.7-.15-4.2-1.49-17.91-10.38-19.17-12.27-1.24-1.86,1.67-2.32,1.75-2.34M175.12,345.09c-.1,0-.2,0-.3.02-.63.1-2.75.55-3.5,2.27-.25.58-.54,1.75.39,3.15,1.67,2.5,16.08,11.59,20.16,13.05.5.18.95.27,1.37.27,1.08,0,1.99-.59,2.37-1.55,1.31-3.28-5.43-9.92-6.79-11.22-.13-.13-.28-.24-.45-.32-4.65-2.45-9.09-4.71-12.32-5.52-.14-.04-.28-.06-.42-.09l-.11-.02c-.13-.03-.27-.04-.4-.04h0Z"/>
          </g>
          <g>
            <path class="cls-1" d="M204.24,396.43c-.17,0-.33-.04-.48-.12l-11.7-6.36c-.32-.18-.53-.52-.52-.89,0-.37.21-.71.54-.88.02-.01,3.38-1.94,5.51-9.44,2.05-7.21-8.65-12.85-8.76-12.9-.37-.19-.58-.59-.53-1,.04-.41.34-.75.74-.86.26-.07.53-.1.85-.1,5.98,0,27.58,13.96,36.59,19.96.58.39.84,1.1.64,1.77-.2.68-.82,1.13-1.52,1.13h0c-.72-.04-1.32-.05-1.9-.05-13.51,0-18.51,9.11-18.56,9.21-.13.24-.34.41-.6.49-.09.03-.19.04-.29.04Z"/>
            <path class="cls-24" d="M189.88,364.89c5.88,0,29.2,15.24,36.04,19.8.49.33.24,1.07-.33,1.07-.01,0-.03,0-.04,0-.64-.04-1.26-.05-1.87-.05-14.26,0-19.44,9.74-19.44,9.74l-11.7-6.36s3.71-1.95,6.01-10.05c2.3-8.1-9.27-14.07-9.27-14.07.17-.05.37-.07.59-.07M189.88,362.89c-.4,0-.77.05-1.11.13-.8.21-1.39.89-1.48,1.72s.34,1.61,1.07,1.99c.1.05,10.08,5.32,8.26,11.74-1.98,6.98-5.02,8.83-5.05,8.84-.65.34-1.05,1.01-1.05,1.75s.42,1.41,1.06,1.76l11.7,6.36c.3.16.62.24.96.24.19,0,.39-.03.58-.08.51-.15.94-.51,1.19-.98.19-.35,4.87-8.68,17.67-8.68.57,0,1.16.02,1.75.05.04,0,.11,0,.15,0,1.15,0,2.15-.74,2.48-1.84.33-1.09-.09-2.26-1.04-2.89-11.29-7.52-31.12-20.13-37.15-20.13h0Z"/>
          </g>
          <g>
            <path class="cls-25" d="M222.97,379.47c-3.57,0-5.9-2.22-6-2.32l-.29-.28v-.41c-.16-5.57-5.9-12.97-5.96-13.04l-.4-.51.3-.57c.18-.34.63-.9,1.65-.9.85,0,1.76.42,1.86.46,10.32,5.7,12.22,15.57,12.3,15.99l.16.86-.83.27c-.92.3-1.85.45-2.78.45h0Z"/>
            <path class="cls-24" d="M212.27,362.44c.65,0,1.43.37,1.43.37,9.96,5.51,11.74,15.26,11.74,15.26-.88.29-1.7.4-2.47.4-3.2,0-5.3-2.03-5.3-2.03-.16-5.98-6.16-13.63-6.16-13.63.15-.28.44-.37.76-.37M212.27,360.44c-1.13,0-2.05.52-2.53,1.43l-.61,1.15.8,1.02c1.56,1.99,5.62,8.11,5.74,12.45l.02.82.59.57c.11.11,2.73,2.6,6.7,2.6,1.03,0,2.07-.17,3.09-.5l1.66-.54-.31-1.72c-.08-.44-2.07-10.76-12.74-16.66l-.06-.03-.06-.03c-.28-.13-1.27-.56-2.28-.56h0Z"/>
          </g>
          <g>
            <path class="cls-25" d="M200.04,367.99c-2.68,0-4.61-2.37-4.69-2.47l-.29-.37.09-.46c1.14-5.6-3.08-9.3-3.26-9.46l-.73-.63.6-.76c.18-.22.52-.48,1.12-.48,1.51,0,4.63,1.71,6.77,3.36,2.4,1.85,3.57,6.74,2.81,9.31-.34,1.16-1.09,1.86-2.06,1.94-.12,0-.25.01-.37.01Z"/>
            <path class="cls-24" d="M192.88,354.36c1,0,3.78,1.32,6.16,3.15,2.77,2.13,3.66,9.27,1.28,9.46-.1,0-.19.01-.29.01-2.23,0-3.91-2.1-3.91-2.1,1.28-6.28-3.59-10.42-3.59-10.42.06-.07.18-.11.34-.11M192.88,352.36c-1.06,0-1.65.54-1.9.86l-1.21,1.52,1.48,1.26c.15.13,3.94,3.49,2.92,8.49l-.19.92.59.73c.23.29,2.37,2.85,5.47,2.85.15,0,.3,0,.45-.02.66-.05,2.28-.42,2.94-2.66.87-2.94-.35-8.22-3.16-10.39-2.3-1.77-5.58-3.57-7.38-3.57h0Z"/>
          </g>
          <g>
            <path class="cls-25" d="M210.48,374.99c-3.34,0-5.51-3.51-5.6-3.66l-.2-.33.08-.38c1.3-6.57-2.24-10.64-2.4-10.8l-1.05-1.17,1.5-.46c.2-.06.43-.09.66-.09,2.03,0,5.46,2.46,6.12,2.95l.08.06.07.08c4.21,4.75,2.37,12.66,2.29,13l-.16.65-.66.1c-.25.04-.5.06-.75.06h0Z"/>
            <path class="cls-24" d="M203.48,359.1c1.81,0,5.53,2.75,5.53,2.75,3.91,4.41,2.06,12.1,2.06,12.1-.2.03-.4.05-.59.05-2.81,0-4.74-3.18-4.74-3.18,1.42-7.19-2.63-11.67-2.63-11.67.11-.03.24-.05.37-.05M203.48,357.1c-.33,0-.65.05-.95.13l-3.03.91,2.12,2.34c.13.15,3.35,3.89,2.15,9.94l-.15.76.4.66c.26.42,2.63,4.14,6.45,4.14.3,0,.61-.02.91-.07l1.32-.21.31-1.3c.09-.36,2.04-8.76-2.51-13.89l-.14-.16-.17-.12c-1-.74-4.43-3.14-6.72-3.14h0Z"/>
          </g>
          <g>
            <path class="cls-30" d="M227.35,386.97c-9.51,0-28.64-14.89-34.28-19.45-.54-.44-1.32-.66-2.3-.66-3.46,0-8.2,2.66-9.57,3.47l-.82.49-.52-.8c-1.1-1.68-2.31-3.27-3.59-4.71l-.05-.06-.62-.96.93-.54c.29-.16,7.24-3.97,14.09-4.44.17-.01.34-.02.51-.02,3.82,0,7.34,2.81,11.41,6.07,3.38,2.7,7.2,5.76,11.67,7.44,2.57.97,5.14,1.46,7.62,1.46,2.05,0,4-.33,5.81-.97l.77-.27.42.7c1.63,2.71,4.25,5.86,6.28,5.86.08,0,.16,0,.24-.02.34-.04.69-.13,1.07-.25l1.89-.62-.63,1.89c-.74,2.21-3,5.98-9.79,6.38-.17.01-.34.02-.52.02h0Z"/>
            <path class="cls-24" d="M191.11,360.29c6.55,0,12.92,9.75,22.72,13.44,3,1.13,5.68,1.52,7.97,1.52,2.59,0,4.68-.51,6.14-1.03.91,1.51,4.06,6.35,7.14,6.35.12,0,.25,0,.37-.02.44-.06.85-.16,1.25-.29-.72,2.16-2.81,5.34-8.9,5.7-.15,0-.31.01-.46.01-9.5,0-29.85-16.15-33.65-19.23-.78-.63-1.8-.89-2.93-.89-3.69,0-8.55,2.7-10.08,3.62-1.04-1.6-2.26-3.23-3.69-4.83v-.02s6.95-3.86,13.67-4.32c.15-.01.3-.02.45-.02M191.11,358.29s0,0,0,0c-.19,0-.39,0-.58.02-7.07.48-14.21,4.4-14.51,4.57l-1.84,1.02,1.11,1.79.09.15.13.15c1.25,1.4,2.43,2.94,3.5,4.59l1.05,1.61,1.65-.98c2.71-1.61,6.52-3.33,9.06-3.33.75,0,1.31.15,1.67.44,5.7,4.62,25.07,19.68,34.91,19.68.2,0,.39,0,.58-.02,7.38-.44,9.85-4.61,10.68-7.06l1.26-3.77-3.78,1.24c-.32.1-.61.17-.89.21-.04,0-.07,0-.11,0-1.26,0-3.54-2.26-5.42-5.38l-.84-1.4-1.54.55c-1.7.61-3.54.91-5.47.91-2.36,0-4.81-.47-7.27-1.4-4.32-1.62-8.08-4.63-11.39-7.28-4.22-3.37-7.87-6.29-12.03-6.29h0Z"/>
          </g>
          <g>
            <path class="cls-1" d="M228.83,416.91c-1.5-.72-36.76-17.63-46.23-26.23-9.45-8.57-25.52-31.09-26.2-32.04l-.31-.44.19-.5c.07-.19,1.79-4.57,5.28-5.47.46-.12,1.02-.18,1.67-.18,4.09,0,13.37,2.55,19.22,12.18,1.27,2.09,2.49,4.26,3.67,6.37,4.73,8.43,9.21,16.39,17.04,20.33,2.88,1.45,6.4,2.97,10.12,4.57,9.6,4.15,19.53,8.43,21.84,12.91l.15.29-.05.32c-.04.26-1.01,6.35-5.64,7.93l-.39.13-.37-.18Z"/>
            <path class="cls-24" d="M163.23,353.05c4.11,0,12.91,2.72,18.37,11.7,6.22,10.23,10.95,21.96,21.12,27.07,10.17,5.11,28.52,11.23,31.52,17.05,0,0-.86,5.73-4.97,7.13,0,0-36.51-17.47-45.99-26.07-9.48-8.6-26.06-31.88-26.06-31.88,0,0,1.56-4.07,4.59-4.85.37-.09.85-.15,1.42-.15M163.23,351.05h0c-.73,0-1.38.07-1.92.21-3.92,1.01-5.77,5.56-5.96,6.08l-.38,1,.62.87c.68.96,16.82,23.55,26.34,32.2,9.58,8.7,44.97,25.67,46.47,26.39l.74.35.77-.26c5.2-1.78,6.26-8.44,6.3-8.73l.1-.64-.3-.58c-2.48-4.79-12.12-8.95-22.33-13.36-3.71-1.6-7.21-3.12-10.07-4.55-7.56-3.8-11.96-11.63-16.62-19.93-1.19-2.11-2.41-4.3-3.69-6.4-6.09-10.01-15.79-12.66-20.08-12.66h0Z"/>
          </g>
          <g>
            <path class="cls-24" d="M225.5,417.82c-3.53,0-8.67-1.52-14.88-4.39-13.01-6.02-22.67-11.23-33.51-20.01-9.04-7.32-23.8-28.04-21.86-34.76.37-1.27,1.29-2.02,2.66-2.19.03,0,.19-.01.48-.01,1.42,0,6.45.3,11.32,4.14,2.92,2.3,6.57,8.08,10.44,14.2,3.59,5.69,7.31,11.57,10.36,14.43,7.94,7.45,15.14,12.38,21.4,14.66,9.48,3.45,17.39,6.61,18.05,10.37.15.87-.03,1.65-.54,2.25-.73.87-2.05,1.31-3.93,1.31Z"/>
            <path class="cls-24" d="M158.39,357.21c1.38,0,6.18.29,10.86,3.98,5.55,4.37,14.39,22.62,20.75,28.59,6.36,5.97,14.03,12.04,21.66,14.82,7.63,2.77,16.95,6.26,17.56,9.8.29,1.67-.98,2.68-3.73,2.68-3.07,0-7.97-1.27-14.57-4.32-12.48-5.78-22.35-11-33.35-19.91-11-8.9-27.77-34.65-19.58-35.62,0,0,.14,0,.4,0M158.39,355.71h0c-.33,0-.5.01-.5.01-.02,0-.05,0-.07,0-1.67.2-2.84,1.16-3.29,2.72-2.05,7.1,12.7,27.94,22.1,35.55,10.9,8.82,20.6,14.05,33.67,20.1,6.31,2.92,11.56,4.46,15.2,4.46,2.11,0,3.62-.53,4.5-1.58.45-.54.95-1.48.7-2.86-.73-4.16-8.48-7.29-18.53-10.95-6.17-2.24-13.28-7.12-21.14-14.5-2.98-2.8-6.67-8.64-10.24-14.29-3.9-6.17-7.59-12.01-10.61-14.39-5.06-3.99-10.3-4.3-11.78-4.3h0Z"/>
          </g>
          <path class="cls-9" d="M229.22,414.39c.62,3.53-5.81,4.14-18.29-1.64-12.48-5.78-22.35-11-33.35-19.91-11-8.9-27.77-34.66-19.58-35.62"/>
          <g>
            <path class="cls-1" d="M240.64,396.89c-.34,0-.68-.12-.94-.35-1.41-1.2-2-2.54-1.62-3.68.37-1.11-.22-2.53-2.42-5.84-1.16-1.74-1.2-4.18-.11-7.06l.18-.47.48-.14c.92-.27,1.74-.73,2.53-1.18,1.02-.57,1.98-1.11,3.01-1.11.92,0,1.74.44,2.44,1.31,1.69,2.11.65,10.5-2.19,17.6-.22.55-.75.91-1.34.91h0Z"/>
            <path class="cls-24" d="M241.74,378.07c.57,0,1.12.26,1.66.94,1.21,1.52.67,9.08-2.34,16.61-.07.18-.24.28-.42.28-.1,0-.21-.03-.3-.11-.9-.77-1.6-1.77-1.32-2.6.54-1.63-.36-3.45-2.54-6.71-1.22-1.83-.7-4.32,0-6.15,2.23-.65,3.83-2.25,5.26-2.25M241.74,376.07c-1.29,0-2.41.63-3.5,1.24-.74.42-1.51.85-2.32,1.09l-.96.28-.35.93c-1.21,3.19-1.13,5.95.22,7.97,1.59,2.38,2.58,4.13,2.31,4.97-.52,1.55.19,3.28,1.92,4.76.44.38,1.01.58,1.59.58,1.01,0,1.9-.6,2.27-1.54,2.72-6.81,4.19-15.91,2.04-18.6-.9-1.12-1.98-1.69-3.22-1.69h0Z"/>
          </g>
          <path class="cls-24" d="M197.69,379.78s-.8,6.28,2.51,8.86,10.11,1.71,10.11,1.71l-2.58,2.28s-7.76-3.31-8.67-4c-.91-.69-3.66-4.11-3.66-4.11l2.29-4.75Z"/>
          <path class="cls-24" d="M190.53,367.43s-3.28,1.38-1.95,5.94c0,0-3.23-4.61-3.04-5.13s4.99-.81,4.99-.81Z"/>
          <path class="cls-24" d="M227.98,395.43s-3.68,3.02-.34,5.7l-5.86-2.08s4.97-3.63,6.2-3.62Z"/>
          <path class="cls-24" d="M238.85,401.14s-3.09,4.02-7.05,3.19l3.1,2.47s3.59-4.95,3.96-5.66Z"/>
          <path class="cls-24" d="M168.36,347.48s-3.12,2.37,0,4.57l-5.44-.79s4.3-3.89,5.44-3.78Z"/>
          <path class="cls-24" d="M229.71,373.47s5.28,5.8,9.48,0c0,0-1.86,5.28-2.29,5.59-.43.3-4.16.39-4.94-.59-.78-.97-2.25-5-2.25-5Z"/>
          <path class="cls-24" d="M230.39,352.04s-1.08,7.53,0,10.69l-3.16-4.74,3.16-5.95Z"/>
        </g>
        <g>
          <g>
            <path class="cls-17" d="M317.58,436.19c-4.42,0-12.6-.18-17.83-1.37-10.68-2.43-15.84-4.64-17.25-7.4-.44-.87-.5-1.79-.16-2.69.17-1.48,1.61-12.83,6.69-15.95,4.41-2.71,23.33-9.56,28.35-11.36-.73-1.27-1.65-3.43-1.01-5.44.53-1.67,1.96-2.87,4.26-3.55,1.86-.55,3.88-.84,6-.84,5.32,0,11.51,1.97,13.06,5.75,1.27,3.1.41,6.24-.31,7.97.13,0,.26,0,.4,0,1.86,0,4.36-.43,5.68-2.49,1.32-2.05,1.5-4.05,1.65-5.67.13-1.4.24-2.6,1.15-3.27.57-.41,1.77-1.11,3.41-1.11,1.54,0,3.05.6,4.5,1.78,3.37,2.75,14.5,24.37,12.21,32.89-1.99,7.41-19.91,10.27-35.29,11.93l-1.35.15c-3.66.41-8.96.65-14.18.65Z"/>
            <path class="cls-24" d="M326.64,388.59c5.56,0,10.88,2.07,12.14,5.12,1.69,4.12-.9,8.45-.9,8.45,0,0,.79.15,1.92.15,1.96,0,4.92-.46,6.52-2.94,2.53-3.93,1.27-7.73,2.55-8.67.66-.48,1.64-.92,2.82-.92s2.46.4,3.87,1.55c2.89,2.36,14.06,23.74,11.88,31.86-2.18,8.12-27.93,10.47-35.79,11.35-3.53.39-8.72.64-14.07.64-6.57,0-13.38-.38-17.61-1.34-7.68-1.75-18.45-4.65-16.64-8.87,0,0,1.27-12.3,6.23-15.34,4.96-3.04,29.36-11.7,29.36-11.7,0,0-5.07-6.44,2.01-8.56,1.82-.54,3.78-.79,5.71-.79M326.64,386.59h0c-2.22,0-4.33.3-6.29.88-3.28.98-4.49,2.83-4.93,4.21-.59,1.87-.09,3.77.55,5.19-6.24,2.25-23.24,8.48-27.46,11.06-5.37,3.29-6.89,14.34-7.15,16.57-.39,1.13-.31,2.29.25,3.37,1.58,3.09,6.77,5.39,17.91,7.92,5.32,1.21,13.6,1.39,18.06,1.39,5.26,0,10.6-.24,14.29-.66l1.34-.15c16.68-1.8,34.02-4.72,36.15-12.67,2.44-9.06-8.99-31.03-12.55-33.93-1.63-1.33-3.36-2-5.13-2-1.43,0-2.85.46-4,1.3-1.28.93-1.42,2.48-1.56,3.98-.15,1.58-.31,3.38-1.5,5.22-.87,1.34-2.42,1.84-3.83,1.98.57-1.95.91-4.64-.19-7.31-1.79-4.37-8.51-6.37-13.99-6.37h0Z"/>
          </g>
          <g>
            <path class="cls-1" d="M299.6,417.77c-5.2,0-8.42-.65-9.84-1.98-1.48-1.38-1.99-3.51-1.47-6.15l.08-.4.33-.23c.15-.11.24-.17.33-.22,4.41-2.71,23.33-9.56,28.35-11.36-.73-1.27-1.65-3.43-1.01-5.44.53-1.67,1.96-2.87,4.26-3.55,1.86-.56,3.88-.84,6-.84,5.32,0,11.51,1.97,13.06,5.75,1.86,4.53-.85,9.15-.97,9.34l-.17.28-.29.13c-3.62,1.58-5.6,2.83-7.35,3.93-2.88,1.82-5.16,3.27-12.63,5.07l-11.68,5.33-.16.02c-.13.01-3.27.33-6.85.33h0Z"/>
            <path class="cls-24" d="M326.64,388.59c5.56,0,10.88,2.07,12.14,5.12,1.69,4.12-.9,8.45-.9,8.45-9.54,4.15-7.85,6.07-19.91,8.98l-11.62,5.3s-3.18.32-6.75.32-7.7-.34-9.16-1.71c-1.5-1.4-1.51-3.51-1.17-5.22.09-.07.19-.13.28-.19,4.96-3.04,29.36-11.7,29.36-11.7,0,0-5.07-6.44,2.01-8.56,1.83-.54,3.78-.79,5.71-.79M326.64,386.59c-2.22,0-4.33.3-6.29.88-3.28.98-4.49,2.83-4.93,4.21-.59,1.87-.09,3.77.55,5.19-6.24,2.25-23.24,8.48-27.46,11.06-.11.07-.22.15-.33.22l-.05.04-.66.46-.15.79c-.74,3.78.55,5.93,1.76,7.07,1.03.97,3.24,2.25,10.53,2.25,3.63,0,6.81-.32,6.95-.33l.33-.03.3-.14,11.44-5.22c7.56-1.84,10.01-3.39,12.84-5.18,1.71-1.09,3.66-2.32,7.21-3.86l.59-.26.33-.55c.13-.21,3.08-5.25,1.04-10.24-1.79-4.37-8.51-6.37-13.99-6.37h0Z"/>
          </g>
          <g>
            <path class="cls-1" d="M326.42,435.96c-.31,0-.61-.14-.79-.39-.2-.26-.26-.61-.15-.92.96-2.87,2.03-7.13,1.71-11.18-.32-4.06-7.62-4.67-11.93-4.67-3.36,0-6.13.36-6.16.36-.04,0-.09,0-.13,0-.43,0-.82-.28-.95-.7-.14-.46.07-.97.5-1.19.51-.26,12.46-6.34,19.12-7.74,6.52-1.37,17.09-3.83,17.2-3.86.08-.02.15-.03.23-.03.37,0,.72.21.89.55.21.41.11.91-.24,1.21-9.27,7.92-4.68,19.15-1.11,25.13.17.29.19.64.04.94-.14.3-.42.51-.75.56-4.21.64-8.15,1.07-10.76,1.35l-1.35.15c-1.5.17-3.28.31-5.3.42-.02,0-.04,0-.05,0Z"/>
            <path class="cls-24" d="M345.04,406.65c-9.83,8.4-5.05,20.14-1.32,26.4-4.97.76-9.48,1.21-12.06,1.49-1.49.17-3.27.31-5.24.41,1.03-3.09,2.09-7.42,1.76-11.57-.37-4.68-7.47-5.59-12.93-5.59-3.48,0-6.29.37-6.29.37,0,0,12.27-6.26,18.88-7.65,6.61-1.39,17.22-3.86,17.22-3.86M345.04,404.65c-.15,0-.3.02-.45.05-.11.02-10.66,2.48-17.18,3.85-6.79,1.43-18.86,7.57-19.37,7.83-.87.44-1.29,1.44-1,2.37.26.85,1.04,1.41,1.91,1.41.09,0,.17,0,.26-.02.03,0,2.74-.35,6.03-.35,6.66,0,10.75,1.4,10.94,3.75.31,3.88-.73,8-1.66,10.78-.21.63-.09,1.32.31,1.85.38.5.97.79,1.59.79.04,0,.07,0,.11,0,2.03-.11,3.83-.25,5.35-.42l1.32-.14c2.62-.28,6.58-.71,10.83-1.36.66-.1,1.22-.52,1.51-1.12.28-.6.25-1.31-.09-1.88-4.16-6.98-7.38-16.79.9-23.86.7-.6.9-1.6.49-2.42-.35-.68-1.04-1.1-1.78-1.1h0Z"/>
          </g>
          <g>
            <path class="cls-25" d="M309.38,416.55c-.72,0-1.27-.09-1.29-.09l-.41-.07-.24-.33c-4.81-6.69-11.96-9.33-12.04-9.36l-.66-.24v-.7c0-2.37,4.61-3.09,7.36-3.32h.09s.09,0,.09,0c4.29.46,9.15,6.14,10.67,9.19.71,1.42.84,2.46.41,3.18-.68,1.14-2.06,1.74-3.99,1.74h0Z"/>
            <path class="cls-24" d="M302.18,403.43c4.79.51,11.35,9.15,10.33,10.86-.63,1.05-2.09,1.25-3.13,1.25-.65,0-1.13-.08-1.13-.08-5.06-7.05-12.51-9.72-12.51-9.72,0-1.8,6.44-2.32,6.44-2.32M302.2,401.42l-.19.02c-5.49.45-8.27,1.9-8.27,4.31v1.41s1.32.48,1.32.48c.06.02,6.94,2.58,11.56,9l.48.67.81.14c.07.01.67.11,1.46.11,2.9,0,4.24-1.21,4.84-2.23.92-1.54-.05-3.5-.37-4.14-1.83-3.67-6.97-9.26-11.46-9.74l-.19-.02h0Z"/>
          </g>
          <g>
            <path class="cls-25" d="M326.82,409.9c-3.29-6.47-12.54-9.56-12.63-9.59l-.69-.23v-.73c0-1.71,2.46-2.23,3.52-2.37l.11-.02h.12c9.61.93,17.17,7.22,17.49,7.49l.44.37-.09.56c-.7,4.21-6.99,5.02-7.25,5.05l-.69.08-.32-.62Z"/>
            <path class="cls-24" d="M317.15,397.98c9.41.9,16.94,7.25,16.94,7.25-.59,3.52-6.39,4.22-6.39,4.22-3.52-6.93-13.21-10.09-13.21-10.09,0-1.02,2.65-1.38,2.65-1.38M317.11,395.96l-.23.03c-2.78.38-4.38,1.6-4.38,3.36v1.45s1.38.45,1.38.45c.09.03,8.95,3,12.05,9.09l.63,1.25,1.39-.17c.75-.09,7.31-1.02,8.12-5.88l.19-1.12-.87-.73c-.33-.28-8.12-6.77-18.04-7.71l-.23-.02h0Z"/>
          </g>
          <g>
            <path class="cls-25" d="M318.16,413.73c-2.85-5.42-9.01-8.61-11.33-9.82-1.11-.58-1.84-.96-1.5-1.85.62-1.62,3.79-2.18,5.63-2.37h.14s.14.01.14.01c5.05.89,10.82,6.8,12.79,9.76.73,1.1.98,1.81.85,2.4-.41,1.8-3.79,2.28-5.77,2.4l-.65.04-.3-.57Z"/>
            <path class="cls-24" d="M311.06,400.68c5.8,1.03,13.14,9.62,12.84,10.96s-4.85,1.62-4.85,1.62c-3.8-7.23-12.9-10.54-12.78-10.85.49-1.28,4.8-1.72,4.8-1.72M311.13,398.66l-.28.03c-3.68.37-5.85,1.39-6.46,3.01-.66,1.73.93,2.55,1.97,3.1,2.24,1.16,8.2,4.25,10.91,9.4l.6,1.14,1.29-.08c4.01-.25,6.26-1.31,6.68-3.17.2-.88-.1-1.83-.99-3.17-1.84-2.77-7.79-9.19-13.44-10.19l-.27-.05h0Z"/>
          </g>
          <g>
            <path class="cls-30" d="M307.04,435.82c-2.47-.19-4.63-.47-6.41-.82l-.79-.16-.02-.81c-.03-1.7-.08-10.48,2.07-16.02,1.94-4.98,3.56-5.3,8.94-6.34,1.67-.33,3.75-.73,6.38-1.38,8.37-2.05,15.85-6.31,18.67-8.05,1-.62,2.15-.95,3.32-.95,0,0,.46,0,.6,0,1.86,0,4.36-.43,5.68-2.49l.9-1.4.81,1.45c1.12,2.01,1.26,3.99.42,5.88-3.26,7.29-20.97,11.23-31.55,13.58-3.01.67-5.85,1.3-6.46,1.64-1.13.63-2.02,5.45-1.49,14.78l.07,1.14-1.14-.09Z"/>
            <path class="cls-24" d="M346.32,399.37c7.14,12.78-33.86,17.87-37.21,19.75-2.49,1.4-2.27,10.9-2,15.71-2.37-.19-4.51-.45-6.3-.8-.07-3.79.22-11.06,2-15.64,2.29-5.88,3.6-4.41,14.63-7.11,8.43-2.06,15.9-6.29,18.96-8.17.85-.52,1.81-.8,2.8-.8.06,0,.12,0,.18,0,.13,0,.28,0,.42,0,1.96,0,4.92-.46,6.52-2.94M346.45,395.49l-1.8,2.8c-1.08,1.68-3.23,2.03-4.84,2.03-.12,0-.24,0-.36,0-.08,0-.16,0-.24,0-1.35,0-2.68.38-3.84,1.09-2.79,1.71-10.16,5.92-18.39,7.93-2.61.64-4.68,1.04-6.34,1.36-5.49,1.07-7.54,1.47-9.68,6.96-2.22,5.71-2.17,14.66-2.14,16.4l.03,1.61,1.58.31c1.82.36,4.02.64,6.53.84l2.29.18-.13-2.29c-.57-9.85.52-13.31,1.02-13.87.67-.3,3.58-.95,6.15-1.52,14.56-3.24,29.04-7,32.25-14.15.97-2.16.81-4.51-.46-6.78l-1.62-2.91h0Z"/>
          </g>
          <g>
            <path class="cls-1" d="M363.63,407.17c-2.33-.57-4.59-2.8-6.08-4.42l-.12-.13c-.19-.21-.48-.42-1.16-.42-.73,0-1.77.25-3.18.75-.47.17-.97.25-1.48.25-3.05,0-5.89-3.02-6.01-3.15l-.53-.57.42-.65c1.32-2.05,1.5-4.05,1.65-5.67.13-1.4.24-2.6,1.15-3.27.57-.41,1.77-1.11,3.41-1.11,1.54,0,3.05.6,4.5,1.78,1.83,1.5,5.77,8.48,8.59,15.25l.76,1.83-1.92-.47Z"/>
            <path class="cls-24" d="M351.7,389.79c1.13,0,2.46.4,3.87,1.55,1.52,1.24,5.35,7.77,8.3,14.86-2.44-.6-5.04-3.54-5.71-4.27-.46-.49-1.05-.74-1.89-.74s-2,.27-3.52.81c-.38.14-.76.19-1.14.19-2.65,0-5.28-2.83-5.28-2.83,2.53-3.93,1.27-7.73,2.55-8.67.66-.48,1.64-.92,2.82-.92M351.7,387.79c-1.43,0-2.85.46-4,1.3-1.28.93-1.42,2.48-1.56,3.98-.15,1.58-.31,3.38-1.5,5.22l-.84,1.31,1.06,1.14c.33.35,3.32,3.47,6.74,3.47.63,0,1.24-.1,1.82-.31,1.29-.46,2.24-.69,2.85-.69.33,0,.39.06.42.1l.12.13c1.58,1.72,3.99,4.08,6.58,4.72l3.85.94-1.53-3.66c-2.93-7.01-6.91-14.03-8.88-15.64-1.63-1.33-3.36-2-5.13-2h0Z"/>
          </g>
          <g>
            <path class="cls-30" d="M347.47,432.16c2.15-23.11,15.58-26.78,16.15-26.92l.84-.21.33.8c2.32,5.56,4.83,13.14,3.62,17.65-1.15,4.28-7.61,7.47-19.76,9.77l-1.3.25.12-1.32Z"/>
            <path class="cls-24" d="M363.87,406.2c2.65,6.36,4.61,13.16,3.58,17-1.24,4.62-10.11,7.37-18.98,9.05,2.1-22.67,15.4-26.05,15.4-26.05M365.05,403.84l-1.67.42c-.6.15-14.69,4-16.9,27.8l-.25,2.64,2.61-.49c12.73-2.41,19.26-5.74,20.54-10.49,1.29-4.78-1.28-12.59-3.66-18.29l-.66-1.59h0Z"/>
          </g>
          <g>
            <path class="cls-1" d="M315.17,440.44c-4.01,0-7.69-.2-10.92-.59-16.27-1.98-21.69-5-23.38-7.2-.54-.71-.67-1.29-.69-1.64-1.03-3.72-1.98-8.37-.78-9.67,1.12-1.21,2.27-2.18,2.32-2.22l1.66-1.4-.02,2.17c0,.21.08,5.36,6.1,7.78,3.36,1.35,11.75,2.12,23.01,2.12,6.52,0,13.43-.28,18.49-.74,15.01-1.37,32.55-4.28,36.78-8.3l.45-.43.58.21c.41.15,2.46.97,2.96,2.44.58,1.73-2.79,8.79-3.16,9.4-1.13,1.86-31.84,8.04-53.41,8.04Z"/>
            <path class="cls-24" d="M282.37,419.89s-.05,6,6.73,8.72c3.98,1.6,13.66,2.19,23.38,2.19,6.83,0,13.68-.29,18.58-.74,11.88-1.09,32.42-3.85,37.38-8.57,0,0,1.99.73,2.35,1.82.36,1.09-2.4,7.47-3.06,8.56-.57.94-29.31,7.57-52.55,7.57-3.8,0-7.45-.18-10.8-.58-23.91-2.9-23.18-7.98-23.18-7.98,0,0-2.13-7.67-1.04-8.85,1.09-1.18,2.23-2.13,2.23-2.13M284.4,415.57l-3.32,2.79c-.05.04-1.25,1.05-2.41,2.31-.5.54-1.83,1.97.52,10.52.05.51.25,1.25.88,2.07,2.62,3.41,10.71,5.96,24.05,7.58,3.27.4,6.99.6,11.04.6,13.31,0,27.72-2.17,35.12-3.46,4.63-.81,9.14-1.73,12.71-2.58,5.75-1.38,6-1.79,6.42-2.48.04-.07,4.05-7.84,3.25-10.24-.62-1.86-2.88-2.81-3.56-3.06l-1.17-.43-.9.86c-3.33,3.17-17.53,6.32-36.18,8.02-5.03.46-11.9.74-18.4.74-10.98,0-19.44-.77-22.64-2.05-5.45-2.19-5.48-6.8-5.48-6.84l.03-4.34h0Z"/>
          </g>
          <path class="cls-24" d="M327.74,424.6s2.01,2.77,6.73,3.19,6.03-4.02,6.03-4.02l1.87,4.37-14.98,1.53.35-5.07Z"/>
          <path class="cls-24" d="M300.33,421.82s0,5.92-8.36,6.22l7.87.98.49-7.2Z"/>
          <path class="cls-24" d="M285.95,414.47s-2.21,5.78.97,10.95c0,0-3.36-2.94-3.18-6.13.18-3.18,2.21-4.82,2.21-4.82Z"/>
          <path class="cls-24" d="M290.11,408.96s4.42-1.69,8.05.3c3.64,1.99,4.55,6.29,4.55,6.29l1.95-2.29s-7.88-5.73-8.1-5.82c-.22-.09-.95-.37-1.95-.79-1-.42-4.5,2.3-4.5,2.3Z"/>
          <path class="cls-24" d="M345.04,386.95c-.36-.07,1.74,8.52-4.6,13.4,0,0,1.95.42,3.59-.26s3.64-5.54,3.64-5.54l.22-4.76s-1.98-2.68-2.84-2.84Z"/>
        </g>
        <g>
          <g>
            <path class="cls-3" d="M228.9,293.21c-1.15,0-2.31-.25-3.46-.74-.2-.09-53.93-24.5-53.93-24.5-3.31-1.5-5.84-4.21-7.12-7.62s-1.15-7.11.35-10.42c2.14-4.84,7.04-7.98,12.48-7.98,2.81,0,5.48.85,7.73,2.45l48.53,33.92c3.03,2.23,4.2,5.73,3.08,9.14-1.13,3.44-4.21,5.75-7.67,5.75Z"/>
            <path class="cls-24" d="M177.23,242.95c2.48,0,4.99.72,7.15,2.27l48.53,33.92c6.08,4.47,2.29,13.07-4.01,13.07-.97,0-2-.2-3.06-.66,0,0-53.91-24.49-53.91-24.49-6.35-2.88-9.16-10.37-6.27-16.72,2.08-4.7,6.79-7.39,11.57-7.39M177.23,240.95h0c-5.84,0-11.1,3.37-13.4,8.59-3.33,7.32-.07,16.01,7.28,19.34l53.91,24.49c1.31.56,2.61.84,3.89.84,3.89,0,7.35-2.59,8.62-6.43,1.26-3.84-.05-7.76-3.42-10.24l-48.57-33.95c-2.41-1.72-5.28-2.63-8.3-2.63h0Z"/>
          </g>
          <g>
            <path class="cls-3" d="M160.86,276.58c-.31,0-.6-.14-.8-.39-.24-.32-.27-.74-.08-1.09l23.88-43.22c.18-.32.51-.52.88-.52.01,0,.03,0,.04,0,.38.02.72.25.87.59l9.17,20.6c.09.21.11.44.05.66-3.81,14.46-12.96,18.31-13.34,18.46-.05.02-.09.03-.14.05l-20.3,4.84c-.08.02-.15.03-.23.03Z"/>
            <path class="cls-24" d="M184.74,232.36l9.17,20.6c-3.73,14.14-12.75,17.79-12.75,17.79l-20.3,4.84,23.88-43.22M184.74,230.36c-.73,0-1.4.39-1.75,1.03l-23.88,43.22c-.38.69-.32,1.55.16,2.18.38.5.98.79,1.59.79.15,0,.31-.02.46-.05l20.3-4.84c.1-.02.19-.05.29-.09.41-.16,10-4.2,13.94-19.13.12-.44.08-.91-.11-1.32l-9.17-20.6c-.31-.69-.98-1.15-1.74-1.18-.03,0-.06,0-.09,0h0Z"/>
          </g>
          <g>
            <path class="cls-3" d="M159.7,276.7c-.97,0-1.86-.23-2.63-.67l-8.39-5.34c-.45-.29-.6-.88-.33-1.34l25.65-44.42c.14-.24.36-.41.63-.47.08-.02.16-.03.24-.03.19,0,.38.05.54.16l7.97,5.12c.12.06.23.11.34.17.15.08.28.19.4.29l.09.07.13.08c.1.07.19.15.26.24,4.14,3.89,2.07,15.75-4.87,27.78-6.24,10.81-14.48,18.36-20.03,18.36h0Z"/>
            <path class="cls-24" d="M174.87,225.43l8.03,5.16c.11.05.22.1.32.16.14.08.25.2.38.29l.19.12v.02c3.9,3.36,1.83,14.94-4.93,26.66-6.13,10.62-14.1,17.86-19.16,17.86-.78,0-1.5-.17-2.13-.54l-8.35-5.32,25.65-44.42M174.87,223.43c-.16,0-.32.02-.47.06-.53.13-.99.47-1.26.94l-25.65,44.42c-.54.93-.25,2.11.66,2.69l8.35,5.32s.05.03.07.05c.92.53,1.98.8,3.13.8,5.98,0,14.38-7.58,20.89-18.86,6.24-10.81,9.81-24.12,4.73-28.97-.13-.15-.28-.29-.45-.4l-.1-.07h-.01c-.12-.11-.3-.26-.54-.4-.12-.07-.24-.13-.36-.18l-7.91-5.08c-.33-.21-.7-.32-1.08-.32h0Z"/>
          </g>
          <g>
            <path class="cls-3" d="M151.35,271.38c-.97,0-1.86-.23-2.63-.67-2.65-1.53-3.61-5.43-2.72-10.99.84-5.24,3.22-11.44,6.71-17.48,6.24-10.81,14.48-18.36,20.03-18.36.97,0,1.86.23,2.63.67,2.65,1.53,3.61,5.43,2.72,10.99-.84,5.24-3.22,11.44-6.71,17.48-6.24,10.81-14.48,18.36-20.03,18.36Z"/>
            <path class="cls-24" d="M172.74,224.89c.79,0,1.5.17,2.13.54,4.68,2.7,2.73,14.83-4.36,27.1-6.13,10.62-14.1,17.86-19.16,17.86-.79,0-1.5-.17-2.13-.54-4.68-2.7-2.73-14.83,4.36-27.1,6.13-10.62,14.1-17.86,19.16-17.86M172.74,222.89h0c-5.99,0-14.38,7.58-20.89,18.86-3.54,6.14-5.97,12.47-6.83,17.82-.96,6,.17,10.26,3.21,12.01.92.53,1.98.8,3.13.8,5.98,0,14.38-7.58,20.89-18.86,6.7-11.61,10.25-26.01,3.62-29.83-.92-.53-1.98-.8-3.13-.8h0Z"/>
          </g>
          <g>
            <path class="cls-22" d="M151.18,267.27l-.41-.04-.26-.32c-1.45-1.75-1.26-10.46,5.76-22.61,5.82-10.07,13.08-16.31,16.48-16.31h.15s.42.04.42.04l.27.33c1.45,1.76,1.26,10.46-5.76,22.62-5.82,10.07-13.08,16.31-16.47,16.31h-.18Z"/>
            <path class="cls-24" d="M172.74,228.99s.06,0,.08,0c1.1,1.34.97,9.65-5.86,21.48-5.95,10.31-12.89,15.81-15.61,15.81-.03,0-.06,0-.08,0-1.1-1.33-.97-9.65,5.86-21.48,5.95-10.31,12.89-15.81,15.61-15.81M172.74,226.99c-4.35,0-11.81,7.23-17.34,16.81-7.1,12.29-7.58,21.44-5.67,23.75l.52.63.81.08c.07,0,.17.01.28.01,4.35,0,11.81-7.23,17.34-16.81,7.1-12.29,7.58-21.44,5.67-23.75l-.54-.66-.85-.07c-.06,0-.13,0-.23,0h0Z"/>
          </g>
          <g>
            <path class="cls-25" d="M210.99,290.64c-1.59,0-3.03-.68-4.16-1.98-1.44-1.64-2.01-3.87-1.82-5.21.33-2.44,3.39-11.71,3.52-12.1l.04-.14.08-.12c.08-.12,2.12-3.02,5.52-3.02.81,0,1.63.17,2.44.5,1.77.72,2.84,3.1,3,6.7.21,4.77-1.36,12.43-5.49,14.55-1.07.55-2.12.83-3.12.83Z"/>
            <path class="cls-24" d="M214.17,269.07c.64,0,1.32.12,2.06.42,4.12,1.67,2.7,16.73-2.57,19.43-.98.5-1.87.71-2.67.71-3.51,0-5.25-4.12-4.99-6.06.32-2.38,3.47-11.92,3.47-11.92,0,0,1.78-2.59,4.69-2.59M214.17,267.07h0c-3.92,0-6.25,3.31-6.34,3.46l-.16.23-.09.27c-.33.99-3.22,9.79-3.56,12.28-.25,1.86.6,4.33,2.06,6,1.33,1.52,3.02,2.32,4.91,2.32,1.16,0,2.37-.31,3.58-.93,4.26-2.18,6.29-9.61,6.03-15.49-.18-4.07-1.43-6.69-3.62-7.58-.93-.38-1.88-.57-2.81-.57h0Z"/>
          </g>
          <g>
            <path class="cls-25" d="M202.63,288.55c-1.84,0-3.62-.75-4.87-2.06-1.31-1.36-1.98-3.25-1.89-5.33.27-6.3,4.65-13.62,4.84-13.92.11-.17,1.98-2.82,5.11-2.82,1.19,0,2.38.38,3.56,1.14,1.44.93,2.39,2.67,2.74,5.03.73,4.85-1.1,11.86-4,15.3-1.43,1.71-3.38,2.64-5.49,2.64Z"/>
            <path class="cls-24" d="M205.82,265.42c.89,0,1.91.27,3.01.98,4.38,2.83,2.25,14.41-1.48,18.85-1.32,1.57-3.05,2.29-4.73,2.29-3.06,0-5.93-2.39-5.76-6.34.26-6.11,4.7-13.45,4.7-13.45,0,0,1.62-2.33,4.26-2.33M205.82,263.42h0c-2.91,0-5.08,2.01-5.9,3.2l-.03.05-.03.05c-.19.32-4.71,7.85-4.98,14.4-.1,2.35.67,4.5,2.17,6.06,1.44,1.5,3.48,2.37,5.59,2.37,2.41,0,4.63-1.07,6.26-3,3.05-3.63,4.98-11,4.22-16.1-.4-2.65-1.5-4.63-3.19-5.72-1.34-.87-2.72-1.3-4.1-1.3h0Z"/>
          </g>
          <g>
            <path class="cls-25" d="M193.2,285.04c-.41,0-.82-.04-1.23-.12-2.27-.43-3.94-1.75-4.84-3.83-1.56-3.61-.56-9.39,2.43-14.05,3.71-5.78,6.42-6.79,7.01-6.95.29-.1.61-.15.96-.15,2.33,0,6.22,2.28,6.75,8.38.37,4.29-1.72,10.12-4.86,13.55-1.9,2.07-4.05,3.16-6.23,3.16h0Z"/>
            <path class="cls-24" d="M197.54,260.94c1.87,0,5.27,1.95,5.75,7.47.52,5.94-4.11,15.62-10.09,15.62-.34,0-.69-.03-1.04-.1-6.47-1.22-5.61-10.35-1.75-16.35,3.85-6.01,6.46-6.53,6.46-6.53.19-.07.42-.11.68-.11M197.54,258.94c-.45,0-.88.07-1.26.19-.9.26-3.8,1.5-7.56,7.36-2.58,4.03-4.46,10.43-2.5,14.98,1.03,2.39,2.96,3.92,5.57,4.41.47.09.94.13,1.42.13,2.46,0,4.87-1.21,6.96-3.49,3.37-3.67,5.52-9.69,5.12-14.31-.59-6.77-5.06-9.3-7.75-9.3h0Z"/>
          </g>
          <path class="cls-14" d="M214.45,260.75s-2.31-6.91-7.07-8.61-8.37.88-11.02,6.05c-2.65,5.17-6.19,11.56-1.84,15.03,4.35,3.47,13.16-4.61,13.5-14.14"/>
          <g class="cls-31">
            <path class="cls-28" d="M172.82,229s-.04,0-.08,0l-80.43-97.16s-44.81,26.03-52.28,86.26l111.24,48.18s.04,0,.08,0c2.72,0,9.65-5.49,15.61-15.81,6.83-11.82,6.96-20.14,5.86-21.48Z"/>
          </g>
        </g>
        <g>
          <g>
            <path class="cls-22" d="M322.27,336.96c-6.72,0-13.79-.92-21.01-2.73-28.8-7.23-34.12-16.14-34.34-16.51l-.12-.21v-.24c-.02-.13-.62-13.18-1.48-35.06-.87-22.03,5.5-33.99,5.84-34.6.37-.7,2.33-2.75,12.6-4.95,2.12-.45,4.57-.68,7.29-.68,12.07,0,30.6,4.84,43.08,18.47,8.07,8.81,12.02,26.75,13.9,40.24,1.8,12.9,2.42,28.05,1.21,29.49-1.27,1.5-10.83,6.78-26.99,6.78Z"/>
            <path class="cls-24" d="M291.06,242.98c12.17,0,30.13,4.8,42.35,18.15,14.92,16.28,16.45,66.79,15.08,68.41-.99,1.18-10.21,6.43-26.22,6.43-5.99,0-12.94-.74-20.77-2.7-28.71-7.21-33.71-16.04-33.71-16.04,0,0-.6-12.93-1.47-35.05-.87-22.13,5.72-34.09,5.72-34.09,0,0,.87-2.08,11.93-4.44,2-.43,4.4-.66,7.08-.66M291.06,240.98c-2.79,0-5.31.24-7.5.7-5.4,1.15-12.03,3.03-13.29,5.47-.5.92-6.81,13.08-5.94,35.1.86,21.88,1.46,34.94,1.47,35.07l.02.48.24.42c.22.39,5.75,9.66,34.96,16.99,7.3,1.83,14.45,2.76,21.25,2.76,16.36,0,26.2-5.31,27.75-7.14.44-.52,1.11-1.32.79-10.44-.13-3.58-.53-10.91-1.77-19.83-1.91-13.63-5.91-31.78-14.15-40.78-12.71-13.87-31.55-18.79-43.82-18.79h0Z"/>
          </g>
          <path class="cls-30" d="M285.23,301.87c8.21-3.08,25.29,8.47,32.43,12.65,11.78,6.89,36.6.07,26.71-16.96,1.03-5.13-3.76-9.02-6.84-13.12-11.28-14.36-30.77-18.46-42.05-33.85-1.53-2.3-1.35-5.18-2.44-7.34-3.45-.29-6.54-.15-9.07.39-11.06,2.36-11.93,4.44-11.93,4.44,0,0-6.59,11.97-5.72,34.09s1.47,35.05,1.47,35.05c0,0,1.7,2.99,8.79,6.92-2.7-9.24-1.92-18.31,8.65-22.27Z"/>
          <path class="cls-24" d="M304.08,262.82l9.67,35.82s2.69,10.94,9.79,13.12c17.13,5.25,23.89-10.17,23.89-10.17l-4.88-19.66-38.46-19.1Z"/>
          <g>
            <path class="cls-1" d="M280.06,269.41c-5.24,0-10.02-2.71-13.1-7.42l-.22-.34.08-.4c1.71-8.71,4.18-13.35,4.35-13.65.37-.7,2.33-2.75,12.6-4.95,1.74-.37,3.71-.56,5.87-.56,2.96,0,6.15.35,9.5,1.04l.63.13.14.63c.94,4.2,2,14.73-8.34,21.6-3.91,2.6-7.79,3.92-11.51,3.92h0Z"/>
            <path class="cls-24" d="M289.64,243.1c2.81,0,5.96.33,9.29,1.02,1.01,4.53,1.73,14.14-7.92,20.55-3.99,2.65-7.68,3.75-10.95,3.75-5.4,0-9.66-2.99-12.26-6.97,1.72-8.77,4.25-13.37,4.25-13.37,0,0,.87-2.08,11.93-4.44,1.66-.35,3.57-.54,5.66-.54M289.64,241.1c-2.23,0-4.27.2-6.08.58-5.4,1.15-12.04,3.03-13.29,5.48-.28.53-2.74,5.28-4.43,13.9l-.16.8.45.68c3.27,5,8.35,7.87,13.94,7.87,3.92,0,7.98-1.37,12.06-4.09,10.86-7.22,9.75-18.24,8.76-22.65l-.28-1.26-1.27-.26c-3.41-.7-6.67-1.06-9.7-1.06h0Z"/>
          </g>
          <g>
            <path class="cls-23" d="M279.95,263.82c-5.9,0-9.81-3.67-11.02-10.34l-.04-.25.08-.24c1.14-3.4,2.11-5.22,2.2-5.38.37-.7,2.33-2.75,12.61-4.95,1.74-.37,3.72-.56,5.89-.56,1.43,0,2.94.08,4.49.25l.54.06.25.48c.73,1.43,1.51,3.96,1.1,7.86-.78,7.49-5.53,11.85-14.12,12.94-.67.08-1.33.13-1.96.13h0Z"/>
            <path class="cls-24" d="M289.66,243.1c1.38,0,2.85.08,4.38.24.69,1.36,1.38,3.68,1,7.3-.68,6.58-4.53,10.94-13.25,12.05-.64.08-1.25.12-1.83.12-5.66,0-8.98-3.7-10.03-9.51,1.15-3.44,2.13-5.22,2.13-5.22,0,0,.87-2.08,11.93-4.44,1.67-.36,3.58-.54,5.68-.54M289.66,241.1c-2.23,0-4.28.2-6.1.58-5.41,1.15-12.04,3.03-13.29,5.48-.17.31-1.14,2.19-2.25,5.51l-.16.49.09.5c1.28,7.09,5.66,11.16,12,11.16.67,0,1.37-.05,2.09-.14,9.11-1.16,14.15-5.82,14.99-13.83.43-4.14-.42-6.86-1.21-8.41l-.49-.97-1.08-.12c-1.58-.17-3.13-.25-4.59-.25h0Z"/>
          </g>
          <path class="cls-8" d="M278.16,256.14s-11.16-14.29-10.83-15.41c.33-1.12,13.96-8.37,16.52-6.14,2.57,2.23,8.15,14.4,8.15,14.4"/>
          <path class="cls-24" d="M269.94,245.16l5.76,7.8s11.34-8.22,11.34-13.95l-.61-.85s-10.68,6.58-16.49,7Z"/>
          <path class="cls-5" d="M324.1,325.28c-1.08.58-2.29,1.34-2.45,2.56-.11.87.38,1.73,1.07,2.27.69.54,1.55.81,2.4,1.03,2.88.75,5.89,1.01,8.86.77,2.85-.23,5.74-.95,8.04-2.65,2.3-1.7,3.91-4.5,3.65-7.34-.17-1.81-1.23-3.55-2.75-4.54-2.03-1.34-3.13-.58-5.04.44-4.6,2.48-9.19,4.96-13.79,7.45Z"/>
          <path class="cls-5" d="M313.39,322.47c-.6.59-1.13,1.28-1.32,2.1-.19.82.05,1.77.75,2.24.86.58,2.04.24,2.96-.25,1.27-.67,2.41-1.59,3.34-2.69,1.01-1.2,1.66-3.95-.63-4.15-1.7-.15-4,1.65-5.1,2.74Z"/>
        </g>
        <g>
          <g>
            <path class="cls-24" d="M333.38,285.69c-2.29,0-4.12-.92-5.42-2.74-2.21-3.07-2.48-6.61-.77-9.96,2.53-4.93,8.61-8.12,15.49-8.12,1.93,0,3.9.25,5.85.75l.13.02c3.79.62,4.51,2.97,4.46,4.82-.11,3.64-11.93,15.22-19.74,15.22Z"/>
            <path class="cls-24" d="M342.68,265.62c1.81,0,3.71.23,5.66.72.43.11,4.14.34,4.02,4.1-.09,3.01-11.33,14.5-18.99,14.5-1.9,0-3.58-.71-4.81-2.42-5.38-7.48,2.47-16.89,14.11-16.89M342.68,264.12v1.5-1.5h0c-7.16,0-13.5,3.35-16.16,8.53-1.82,3.56-1.52,7.47.82,10.74,1.43,1.99,3.52,3.05,6.03,3.05,8.2,0,20.37-11.9,20.49-15.95.05-1.76-.54-4.84-5.09-5.59l-.11-.02c-1.97-.5-4-.76-5.99-.76h0Z"/>
          </g>
          <g>
            <path class="cls-23" d="M306.75,290.64s-4.32-4.5-9.61-6.33c-3.26-1.12-4.91-2.17-5.51-3.48-.55-1.2-.07-2.38.18-3.01.57-1.41,2.73-2.83,6.29-2.83,2.61,0,5.53.8,8.44,2.31,7.54,3.91,12.58,9.9,12.79,10.15l1.12,1.34-13.33,2.23-.37-.39Z"/>
            <path class="cls-24" d="M298.1,275.99c2.16,0,4.87.59,7.98,2.2,7.44,3.87,12.48,9.9,12.48,9.9l-11.09,1.86s-4.41-4.65-10.01-6.58c-5.6-1.93-5.46-3.34-4.72-5.18.43-1.07,2.36-2.2,5.36-2.2M298.1,273.99c-3.54,0-6.37,1.36-7.22,3.46-.29.72-.89,2.21-.16,3.8.73,1.61,2.5,2.77,6.09,4.01,5.08,1.75,9.17,6.03,9.21,6.07l.73.77,1.05-.18,11.09-1.86,3.44-.58-2.24-2.68c-.22-.26-5.38-6.39-13.09-10.4-3.06-1.59-6.14-2.43-8.9-2.43h0Z"/>
          </g>
          <g>
            <path class="cls-23" d="M328.36,305.45c-3.57-.05-6.94-1.57-10.2-3.04-1.34-.6-2.72-1.23-4.07-1.72-.51-.19-.98-.36-1.43-.53-2.78-1.04-4.45-1.67-7.04-1.67-.8,0-1.68.06-2.67.19-1.61.2-3.03.3-4.36.3-4.32,0-7.64-1.07-10.15-3.28-2.05-1.8-2.85-4.34-2.05-6.47.66-1.75,2.24-2.79,4.22-2.79.29,0,.6.02.9.07,4.31.64,7.95,1.37,7.98,1.38h0s8.19.85,15.18,1.46c7.17.62,27.38,8.55,28.23,8.89l1.51.59-1.2,1.08c-.25.23-6.27,5.55-14.58,5.55,0,0-.26,0-.26,0Z"/>
            <path class="cls-24" d="M290.6,287.44c.24,0,.49.02.75.06,4.34.65,7.93,1.37,7.93,1.37,0,0,8.18.86,15.3,1.47,7.11.62,27.95,8.82,27.95,8.82,0,0-5.89,5.29-13.91,5.29-.08,0-.17,0-.25,0-4.81-.07-9.36-3.02-13.95-4.7-3.65-1.34-5.61-2.26-8.82-2.26-.83,0-1.75.06-2.8.19-1.43.18-2.85.29-4.24.29-3.57,0-6.89-.75-9.49-3.03-3.39-2.98-2.24-7.51,1.51-7.51M290.6,285.44c-2.38,0-4.36,1.32-5.16,3.44-.95,2.52-.04,5.5,2.32,7.57,2.7,2.38,6.24,3.53,10.81,3.53,1.37,0,2.84-.1,4.49-.31.95-.12,1.79-.18,2.55-.18,2.41,0,4.02.6,6.69,1.61.45.17.93.35,1.44.53,1.31.48,2.62,1.07,4,1.69,3.35,1.51,6.82,3.08,10.6,3.13h.28c8.69,0,14.99-5.56,15.25-5.8l2.41-2.16-3.01-1.19c-.86-.34-21.2-8.32-28.51-8.96-6.61-.57-14.25-1.36-15.17-1.46-.61-.12-3.94-.77-7.94-1.37-.35-.05-.71-.08-1.05-.08h0Z"/>
          </g>
          <g>
            <path class="cls-25" d="M316.72,307.2c-2.35,0-3.82-1.22-4.05-3.36-.39-3.65,3-6.69,5.27-8.29-2.73-.74-7.46-1.92-10.46-2.02-3.68-.13-6.69-1.84-8.04-3.49-.73-.89-1.05-1.81-.91-2.67.39-2.47,1.48-3.65,6.62-3.65,2.07,0,4.85.19,8.5.58,3.23.34,6.58.52,9.96.52,4.54,0,8.3-.32,10.7-.59l-8.32-4.75c-3.39-.93-5.31-3.6-4.91-6.84.51-4.01,4.58-8.06,11.38-8.06,1.68,0,3.46.25,5.3.74,15.21,4.07,29.53,21.79,28.58,26.01-1,4.46-7.36,5.27-14.96,5.82-6.05.43-7.26,1.7-7.43,1.93l-.03.29-.33.26c-3.3,2.6-7.25,3.15-9.98,3.15h0c-2.05,0-3.63-.3-4.19-.42-.63.13-2.81.64-4.65,1.97-1.6,1.16-5.28,2.89-8.07,2.89Z"/>
            <path class="cls-24" d="M332.46,265.57c1.53,0,3.21.22,5.04.71,14.85,3.98,28.66,21.3,27.87,24.82-.79,3.53-5.92,4.46-14.05,5.04s-8.34,2.69-8.34,2.69c-3.01,2.38-6.62,2.94-9.36,2.94-2.43,0-4.17-.44-4.17-.44,0,0-2.86.44-5.26,2.18-1.47,1.07-4.92,2.7-7.48,2.7-1.61,0-2.86-.64-3.05-2.47-.5-4.73,6.72-8.53,6.72-8.53,0,0-8.27-2.51-12.86-2.67-4.49-.16-8.32-3-8-5,.26-1.64.54-2.81,5.63-2.81,1.98,0,4.68.18,8.39.57,3.61.38,7.01.52,10.06.52,8.16,0,13.75-1,13.75-1l-10.98-6.28c-7.74-1.98-4.77-12.97,6.09-12.97M332.46,263.57c-7.38,0-11.81,4.5-12.37,8.94-.47,3.73,1.68,6.8,5.51,7.9l5.47,3.13c-2.08.16-4.62.29-7.47.29-3.34,0-6.66-.17-9.85-.51-3.69-.39-6.5-.58-8.61-.58-5.15,0-7.07,1.13-7.61,4.49-.13.8-.04,2.05,1.13,3.47,1.8,2.18,5.33,3.73,8.78,3.85,2.28.08,5.63.81,8.26,1.47-2.17,1.87-4.39,4.63-4.04,7.95.28,2.66,2.17,4.25,5.04,4.25,3.04,0,6.89-1.8,8.65-3.08,1.53-1.11,3.33-1.6,4.07-1.76.74.15,2.28.4,4.19.4,2.89,0,7.07-.58,10.6-3.36l.67-.53.03-.33c.47-.31,2.07-1.09,6.54-1.41,8-.57,14.71-1.46,15.86-6.6.96-4.27-7.62-13.09-8.6-14.09-3.8-3.84-11.54-10.65-20.7-13.11-1.92-.51-3.79-.78-5.56-.78h0Z"/>
          </g>
          <g>
            <path class="cls-23" d="M324.19,303.5c2.4-1.74,5.26-2.18,5.26-2.18,0,0,7.84,2,13.53-2.49,0,0,.21-2.11,8.34-2.69,8.13-.58,13.26-1.51,14.05-5.04.24-1.05-.84-3.34-2.84-6.13-3.56,6.84-18.46,10.19-24.66,11.17-6.19.98-13.92,1.22-16.71,4.01-1.28,1.28-4.64,3.12-7.41,4.03.96,4.03,8.12,1,10.43-.68Z"/>
            <path class="cls-23" d="M326.37,278.54l8.62,4.93h3.82c.53-4.27,9.97-9.38,9.97-9.38.9-.23,1.82-.34,2.74-.37-4.22-3.29-9.06-6.11-14.02-7.44-14.85-3.98-19.97,10-11.13,12.26Z"/>
            <path class="cls-23" d="M307.52,292.53c3.77.13,10.04,1.86,12.14,2.46,3.27-1.03,5.96-1.05,5.96-1.05l-2.88-1.73c-7.24.72-22.55-5.13-23.22-4.68-.32,2,3.51,4.85,8,5Z"/>
          </g>
          <path class="cls-12" d="M333.41,284.25c.37-.07,12.96-2.17,19.9,1.04"/>
          <g>
            <path class="cls-22" d="M328.2,283.45c-.78-.3-19.06-7.51-22.55-18.61-1.18-3.75-.54-7.5,1.91-11.14.31-.46,3.23-4.51,10.28-4.51,1.14,0,2.35.11,3.58.32,8.38,1.46,26.3,14.76,29.81,17.41.38.29.54.79.38,1.24-.15.45-.57.76-1.05.76h-.11c-.42-.04-1.31-.11-2.44-.11-2.41,0-6.87.31-9.66,2.39-7.65,5.68-8.79,11.44-8.8,11.5l-.22,1.19-1.13-.43Z"/>
            <path class="cls-24" d="M317.84,250.19c1.04,0,2.17.09,3.41.31,8.26,1.44,26.75,15.24,29.38,17.22.09.07.04.2-.07.2,0,0,0,0-.01,0-.49-.04-1.39-.11-2.54-.11-2.9,0-7.33.41-10.26,2.59-8.11,6.03-9.19,12.12-9.19,12.12,0,0-31.05-12.06-20.18-28.27.32-.48,3.03-4.06,9.45-4.06M317.84,248.19h0c-7.57,0-10.77,4.44-11.11,4.95-2.62,3.91-3.31,7.95-2.03,12,3.63,11.55,22.35,18.94,23.15,19.24l2.27.88.42-2.4s1.14-5.46,8.41-10.86c1.9-1.41,5.12-2.19,9.07-2.19,1.09,0,1.94.06,2.36.1h.09s.1,0,.1,0c.91,0,1.71-.58,2-1.44.29-.86,0-1.81-.73-2.35-3.54-2.68-21.64-16.1-30.24-17.6-1.29-.22-2.55-.34-3.75-.34h0Z"/>
          </g>
          <path class="cls-30" d="M316,251.61c.1-.51.29-.95.53-1.37-5.48.44-7.84,3.56-8.14,4-10.88,16.21,20.18,28.27,20.18,28.27,0,0,.53-2.97,3.61-6.82-10.51-4.13-18.47-10.9-16.17-24.09Z"/>
          <path class="cls-12" d="M317.66,295.95s5.6-1.95,9.74-2.01"/>
          <path class="cls-20" d="M323.59,287.47c-.84-.06-1.75-.1-2.44.38-.28.2-.52.5-.5.85.02.41.39.71.74.92,1.93,1.17,4.28,1.37,6.53,1.29.58-.02,1.17-.06,1.72-.26.55-.2,1.05-.59,1.26-1.13.69-1.77-1.38-1.63-2.45-1.71-1.62-.11-3.24-.22-4.86-.34Z"/>
          <path class="cls-20" d="M334.58,289.98c1.02.39,2.17.44,3.23.13.38-.11.78-.3.91-.67.1-.29,0-.63-.19-.86s-.47-.4-.75-.52c-.94-.42-2.64-.73-3.66-.36-1.34.48-.54,1.91.46,2.29Z"/>
          <path class="cls-20" d="M348.21,279.02c.12.36.5.55.84.71,1.96.9,3.93,1.79,5.89,2.69.46.21,1.12.36,1.36-.08.15-.28.01-.63-.14-.91-.95-1.79-2.32-3.54-3.98-4.73-.83-.59-1.43-.63-2.26-.03-.6.43-2.01,1.48-1.72,2.35Z"/>
          <path class="cls-5" d="M339.49,265.4c.62-.02,1.44-.07,1.57-.67.1-.43-.27-.82-.62-1.11-2.27-1.86-7.93-6.3-10.06-1.88-.87,1.81.38,3.39,2.05,4.14,2.42,1.09,4.62-.41,7.06-.48Z"/>
          <path class="cls-5" d="M324.8,253.79c-.71-.16-1.59-.18-2.03.4-.48.62-.15,1.54.32,2.17.64.87,1.52,1.57,2.52,1.99.53.22,1.11.37,1.68.32.57-.06,1.14-.35,1.44-.84,1.27-2.11-2.51-3.72-3.93-4.05Z"/>
        </g>
        <g>
          <g>
            <path class="cls-4" d="M299.65,241.73c-6.68,0-14.68-8.98-15.02-9.36l-.43-.49.28-.59c1.78-3.85,10.94-23.06,15.96-23.8.34-.05.72-.08,1.11-.08,5.18,0,13.8,4.38,14.17,4.57l.2.1.14.18c.31.41,7.63,10.12,9.51,15.41.52,1.47.2,3.13-.89,4.69-2.06,2.92-6.26,4.88-10.44,4.88h0c-2.62,0-5.09-.76-7.24-2.21-.49,2.88-2.29,6.44-6.93,6.69-.13,0-.27.01-.4.01Z"/>
            <path class="cls-24" d="M301.55,208.41c5,0,13.71,4.46,13.71,4.46,0,0,7.51,9.94,9.36,15.14,1.28,3.61-4.18,8.23-10.39,8.23-2.73,0-5.6-.89-8.1-3.15,0,0,.23,7.28-6.13,7.63-.12,0-.23,0-.35,0-6.31,0-14.27-9.02-14.27-9.02,0,0,10.46-22.54,15.2-23.23.3-.04.63-.07.97-.07M301.55,206.41h0c-.44,0-.87.03-1.26.09-1.95.28-4.75,2.04-10.83,12.88-3.21,5.72-5.87,11.43-5.89,11.49l-.55,1.19.86.98c.88.99,8.77,9.7,15.77,9.7.15,0,.31,0,.46-.01,4.53-.25,6.67-3.24,7.53-6.12,2.01,1.08,4.24,1.64,6.58,1.64,4.5,0,9.02-2.13,11.26-5.3,1.29-1.83,1.65-3.82,1.02-5.6-1.93-5.43-9.34-15.26-9.65-15.68l-.28-.37-.41-.21c-.37-.19-9.2-4.68-14.62-4.68h0Z"/>
          </g>
          <g>
            <path class="cls-19" d="M234.68,105.05c-3.25,0-5.26-.43-6.32-1.36-.43-.37-.36-.89-.34-1.06.38-2.93,7.38-23.68,18.15-29.06,1.37-.69,2.78-1.04,4.19-1.04,10,0,17.47,17.71,19.34,25.78l.22.97-.96.23c-.93.23-23.03,5.53-34.29,5.53Z"/>
            <path class="cls-24" d="M250.36,73.54c9.42,0,16.63,17.5,18.37,25.01,0,0-22.78,5.5-34.05,5.5-2.71,0-4.76-.32-5.66-1.11-.35-.31,6.39-22.87,17.6-28.47,1.28-.64,2.53-.93,3.74-.93M250.36,71.54h0c-1.56,0-3.12.38-4.64,1.14-11.85,5.93-18.46,28.05-18.69,29.83-.13,1,.29,1.61.67,1.94,1.27,1.11,3.42,1.6,6.98,1.6,11.38,0,33.58-5.33,34.52-5.56l1.93-.47-.45-1.93c-1.3-5.61-8.57-26.56-20.32-26.56h0Z"/>
          </g>
          <g>
            <path class="cls-26" d="M325.74,161.61c-.37-.43-37.96-43.12-111.68-43.12-2.54,0-5.12.05-7.68.15l-2.14.08,1.31-1.7c.19-.24,19.3-24.4,53.96-24.4,1.75,0,3.53.06,5.3.18,22.85,1.57,42.36,10.78,53.52,25.27,9.12,11.83,12.28,26.72,9.15,43.07l-.39,2.03-1.35-1.57Z"/>
            <path class="cls-24" d="M259.5,93.63c1.71,0,3.45.06,5.23.18,37.93,2.61,69.46,26.94,61.76,67.15,0,0-37.35-43.47-112.44-43.47-2.53,0-5.1.05-7.72.15,0,0,18.6-24.02,53.16-24.02M259.5,91.63c-18.36,0-32.24,6.71-40.66,12.35-9.13,6.11-13.89,12.19-14.09,12.45l-2.62,3.39,4.28-.17c2.55-.1,5.12-.15,7.64-.15,38.25,0,66.36,11.62,83.21,21.37,18.27,10.58,27.62,21.3,27.71,21.4l2.7,3.13.78-4.06c3.18-16.63-.05-31.8-9.34-43.87-11.34-14.71-31.11-24.07-54.25-25.66-1.79-.12-3.6-.19-5.37-.19h0Z"/>
          </g>
          <path class="cls-19" d="M314.78,133.38c-22.56-23.59-50.14-19.71-72.04-31.86-.84-.46-4.75-3.95-4.82-4.56-20.65,6.59-31.58,20.68-31.58,20.68,80.26-3.13,120.16,43.32,120.16,43.32,1.34-7.02,1.47-13.55.59-19.58-3.87.18-8.83-4.34-12.31-8.01Z"/>
          <path class="cls-11" d="M282.44,106.86c.63-.47,5.03-11.64,30.84-15.73,25.8-4.09,22.97,7.87,22.97,12.43s-7.87,25.17-14.95,30.52"/>
          <g>
            <path class="cls-25" d="M247.86,246.98c-36.66,0-55.89-20.99-59.87-35.09-4.38-15.52,4.59-26.56,6.47-28.66-3.68-38.98,12.39-55.2,13.08-55.88l.11-.11.14-.07c9.15-4.65,23.84-7.32,40.31-7.32,11.8,0,22.82,1.42,30.25,3.89,16.93,5.64,39.47,33.5,40.15,46.19.35,6.53-.85,23.13-7.9,39.19-8.91,20.31-24.29,32.84-44.48,36.25-6.27,1.06-12.41,1.6-18.25,1.6h0Z"/>
            <path class="cls-24" d="M248.1,120.86c11.51,0,22.52,1.37,29.93,3.84,16.82,5.61,38.82,33.21,39.47,45.29s-4.31,66.43-51.54,74.41c-6.44,1.09-12.47,1.58-18.09,1.58-35.59,0-54.81-19.84-58.91-34.36-4.74-16.82,6.54-28.03,6.54-28.03-3.84-39.28,12.74-55.51,12.74-55.51,9.83-4.99,25.24-7.21,39.86-7.21M248.1,118.86c-16.62,0-31.48,2.71-40.76,7.43l-.27.14-.22.21c-.7.69-16.98,17.11-13.42,56.24-2.5,2.85-10.76,13.78-6.39,29.28,2.44,8.65,9.16,17.3,18.43,23.73,11.4,7.91,26.06,12.09,42.4,12.09,5.9,0,12.1-.54,18.42-1.61,20.53-3.47,36.17-16.21,45.23-36.83,7.13-16.24,8.34-33.04,7.98-39.65-.4-7.47-7.56-18.46-14.14-26.25-8.89-10.54-18.62-18.14-26.7-20.83-7.52-2.51-18.66-3.94-30.56-3.94h0Z"/>
          </g>
          <path class="cls-23" d="M265.95,244.4c9.67-1.63,17.57-5.21,24.01-9.98-38.68,14.27-65.88-.48-72.03-9.58-3.65-5.4-3.01-11.23-1.87-15.11.51-1.71,2.52-2.33,3.99-1.32,2.94,2.02,8.28,2.59,12.56-.02,6.04-3.68,1.25-11.86,1.25-11.86,0,0-1.33,1.43-5.15,3.33-3.82,1.9-17.72-1.99-12.19-11.86,5.54-9.87,13.28-4.59,13.28-4.59,0,0-7.68-23.76,17.19-28.69,24.87-4.93,39.42,17.27,39.42,17.27,12.61-7.19,17.55-16.81,17.04-27.5-7.63-8.95-17.16-17.04-25.44-19.8-16.82-5.61-52.22-5.56-69.79,3.37,0,0-16.58,16.24-12.74,55.51,0,0-11.29,11.21-6.54,28.03,4.74,16.82,29.76,40.76,76.99,32.78Z"/>
          <polygon class="cls-24" points="199.29 152.41 198.29 160.17 194.91 164.49 195.72 154.42 199.29 152.41"/>
          <path class="cls-24" d="M280.44,158.97s5.25,2.41,4.7,8.54l3.75-5.28-8.45-3.26Z"/>
          <path class="cls-24" d="M193.95,187.64s-9.05,7.69-4.57,26.02c0,0-3.25-8.62-2.16-15.44,1.47-9.2,5.85-13,5.85-13l.88,2.42Z"/>
          <g>
            <path class="cls-4" d="M298.4,195.2c-1.01,0-1.93-.25-2.73-.76-4.02-2.51-4.96-10.46-5.18-13.61-.38.08-.82.13-1.28.13-1.3,0-4.37-.51-4.8-5.22-.59-6.5,7.08-19.16,7.41-19.69l.33-.53.62.06c.19.02,18.98,1.98,18.74,18.16-.21,14.01-7.75,21.47-13.11,21.47h0Z"/>
            <path class="cls-24" d="M292.68,156.56s18.06,1.7,17.83,17.15c-.19,13.25-7.24,20.48-12.11,20.48-.81,0-1.56-.2-2.2-.6-4.54-2.84-4.77-14.08-4.77-14.08,0,0-1.02.44-2.22.44-1.58,0-3.48-.77-3.8-4.31-.57-6.25,7.27-19.08,7.27-19.08M291.62,154.45l-.65,1.07c-.84,1.37-8.16,13.59-7.55,20.31.35,3.84,2.51,6.13,5.79,6.13.12,0,.25,0,.36,0,.35,3.8,1.54,10.82,5.57,13.34.96.6,2.06.91,3.26.91,5.78,0,13.89-7.8,14.11-22.45.2-13.68-12.76-18.52-19.65-19.17l-1.24-.12h0Z"/>
          </g>
          <g>
            <path class="cls-26" d="M320.93,188.54c-1.33,0-2.46-1.32-4.71-3.95-7.08-8.28-23.68-27.66-73.2-38.65h0s-8.84-1.05-18.64-1.05c-14.45,0-23.51,2.19-26.19,6.34l-.87,1.34-.83-1.37c-.11-.18-10.5-17.82,1.1-34.55l.11-.16.17-.11c.45-.29,11.19-7.03,33.93-7.03,10.07,0,21,1.35,32.48,4,41.41,9.58,59.94,38.87,64.63,47.62l.11.21c2.21,4.09-3.06,24.3-7.05,27.03-.32.22-.67.33-1.04.33Z"/>
            <path class="cls-24" d="M231.8,110.34c8.88,0,19.61,1.05,32.25,3.98,44.98,10.41,62.18,43.8,64.09,47.33,1.91,3.54-3,23.18-6.73,25.73-.15.1-.31.15-.47.15-4,0-13.97-28.44-77.7-42.58,0,0-8.85-1.07-18.86-1.07-11.04,0-23.48,1.3-27.03,6.79,0,0-10.3-17.07,1.07-33.46,0,0,10.68-6.88,33.39-6.88M231.8,108.34c-23.03,0-34.01,6.9-34.47,7.19l-.33.22-.23.33c-11.97,17.26-1.59,34.89-1.14,35.64l1.65,2.74,1.74-2.69c1.42-2.2,6.6-5.88,25.35-5.88,9.22,0,17.55.93,18.52,1.05,49.12,10.92,65.54,30.1,72.56,38.3,2.45,2.86,3.68,4.3,5.47,4.3.57,0,1.12-.17,1.6-.5,3.05-2.09,5.41-10.24,6.29-13.65.87-3.4,2.72-11.63,1.07-14.68l-.11-.21c-5.2-9.7-11.94-17.26-16.68-21.89-13.32-13.03-29.68-21.85-48.6-26.23-11.56-2.67-22.56-4.03-32.7-4.03h0Z"/>
          </g>
          <path class="cls-19" d="M310.87,165.46c-33.85-24.62-68.72-31.79-107.69-41.03-4.06-.74-5.72-2.81-5.91-5.44-9.49,15.82.07,31.68.07,31.68,6.77-10.47,45.89-5.72,45.89-5.72,66.39,14.73,74.44,44.98,78.17,42.42,2.82-1.93,6.31-13.6,7.03-20.73-6.45,2.04-13.09,1.78-17.56-1.2Z"/>
          <path class="cls-10" d="M301.75,194.55s4.77-14.55,18.12-15.02c13.35-.48,17.05,14.55,11.69,25.76s-24.44,15.5-29.81,7.63"/>
          <path class="cls-23" d="M313.46,207.09s4.8-1.28,5.55-7.04-8.11-4.39-9.5-1.82c0,0,1.21-6.03,7.65-10.55,6.45-4.52,11.14,1.34,10.97,4.02,0,0,2.11,19.8-14.67,15.4Z"/>
          <path class="cls-13" d="M313.46,207.09s4.8-1.28,5.55-7.04-8.11-4.39-9.5-1.82c0,0,1.21-6.03,7.65-10.55,6.45-4.52,11.14,1.34,10.97,4.02"/>
          <g>
            <path class="cls-4" d="M238,152.97c-3.5,0-7.24-.47-11.11-1.4-11.46-2.75-18.74-10.74-20.87-17.43-1.16-3.64-.81-6.88.94-8.89,1.42-1.62,3.49-2.44,6.16-2.44,3.78,0,7.87,1.66,9.9,2.62.85-4.06,4.26-6.87,8.57-6.87,1.32,0,2.69.26,4.08.77,6.97,2.56,8.86,8.45,11.25,15.89,2.37,7.39,5.94,12.61,5.98,12.67l.54.78-.75.58c-.2.15-4.97,3.72-14.68,3.72h0Z"/>
            <path class="cls-24" d="M231.58,119.56c1.16,0,2.41.22,3.73.71,6.41,2.36,8.2,7.63,10.65,15.26,2.45,7.63,6.11,12.93,6.11,12.93,0,0-4.59,3.52-14.07,3.52-3.1,0-6.72-.38-10.88-1.37-16.86-4.05-24.02-19.41-19.41-24.68,1.36-1.55,3.32-2.1,5.4-2.1,4.99,0,10.71,3.14,10.71,3.14.22-4.11,3.3-7.4,7.76-7.4M231.58,117.56s0,0,0,0c-4.38,0-7.91,2.6-9.23,6.48-2.29-.98-5.87-2.23-9.24-2.23-2.97,0-5.29.94-6.91,2.79-1.99,2.28-2.41,5.87-1.14,9.85,2.21,6.96,9.75,15.25,21.59,18.09,3.95.95,7.76,1.43,11.34,1.43,10.04,0,15.08-3.77,15.29-3.93l1.51-1.16-1.08-1.57s-3.53-5.17-5.85-12.4c-2.38-7.4-4.43-13.79-11.86-16.53-1.5-.55-2.98-.83-4.42-.83h0Z"/>
          </g>
          <g>
            <path class="cls-1" d="M209.12,197.55c-9.4,0-17.05-9.42-17.05-20.99s7.65-20.99,17.05-20.99,17.05,9.42,17.05,20.99-7.65,20.99-17.05,20.99Z"/>
            <path class="cls-24" d="M209.12,156.56c8.87,0,16.05,8.95,16.05,19.99s-7.19,19.99-16.05,19.99-16.05-8.95-16.05-19.99,7.19-19.99,16.05-19.99M209.12,154.56c-9.95,0-18.05,9.87-18.05,21.99s8.1,21.99,18.05,21.99,18.05-9.87,18.05-21.99-8.1-21.99-18.05-21.99h0Z"/>
          </g>
          <path class="cls-6" d="M205.26,164.26c8.87,0,16.05,8.95,16.05,19.99,0,2.27-.32,4.45-.88,6.49,2.93-3.62,4.74-8.64,4.74-14.19,0-11.04-7.19-19.99-16.05-19.99-7.04,0-13.01,5.65-15.17,13.51,2.9-3.59,6.9-5.81,11.31-5.81Z"/>
          <g>
            <path class="cls-1" d="M257.9,199.22c-11.65,0-21.12-10.2-21.12-22.74s9.48-22.74,21.12-22.74,21.12,10.2,21.12,22.74-9.48,22.74-21.12,22.74Z"/>
            <path class="cls-24" d="M257.9,154.73c11.11,0,20.12,9.74,20.12,21.74s-9.01,21.74-20.12,21.74-20.12-9.74-20.12-21.74,9.01-21.74,20.12-21.74M257.9,152.73c-12.2,0-22.12,10.65-22.12,23.74s9.92,23.74,22.12,23.74,22.12-10.65,22.12-23.74-9.92-23.74-22.12-23.74h0Z"/>
          </g>
          <path class="cls-6" d="M255.16,163.48c11.11,0,20.12,9.74,20.12,21.74,0,.82-.05,1.62-.13,2.42,1.81-3.27,2.88-7.07,2.88-11.16,0-12.01-9.01-21.74-20.12-21.74-10.36,0-18.88,8.46-19.99,19.33,3.52-6.33,9.92-10.59,17.25-10.59Z"/>
          <path class="cls-12" d="M283.44,186.01s-1.19,11.34-14.67,14.8"/>
          <path class="cls-12" d="M193.07,194.2s4.99,8.91,16.68,7.57"/>
          <path class="cls-10" d="M231.65,184.79s-4.2-4.2-9.34-2.44c-7.42,2.53-9.48,14.39-1.31,17.28,6.02,2.13,12.83-.79,13.62-4.8"/>
          <g>
            <path class="cls-4" d="M273.8,151.67c-3.01,0-6.41-1.2-9.57-3.38-6.84-4.72-8.94-11.44-9.02-11.73-.32-1.38.13-4.23,3.94-5.59.62-.22,1.25-.33,1.87-.33,3.59,0,6.54,3.56,9.65,7.33l.58.7c1.42,1.71,3.04,2.96,4.48,4.07,2.27,1.75,4.23,3.26,3.7,5.67-.45,2.01-2.6,3.26-5.63,3.26h0Z"/>
            <path class="cls-24" d="M261.03,131.64c3.32,0,6.25,3.8,9.46,7.67,3.7,4.46,8.63,5.88,7.97,8.88-.33,1.51-2.12,2.48-4.66,2.48s-5.71-.93-9-3.2c-6.63-4.57-8.63-11.19-8.63-11.19,0,0-.66-2.94,3.32-4.36.52-.19,1.04-.27,1.54-.27M261.03,129.64c-.74,0-1.49.13-2.21.39-4.47,1.6-4.96,5.07-4.6,6.69l.02.07.02.07c.09.3,2.28,7.35,9.41,12.26,3.32,2.29,6.92,3.55,10.14,3.55,3.52,0,6.06-1.55,6.61-4.05.67-3.03-1.74-4.88-4.07-6.68-1.39-1.07-2.96-2.28-4.32-3.91l-.58-.7c-3.27-3.96-6.36-7.7-10.43-7.7h0Z"/>
          </g>
          <path class="cls-24" d="M266.64,144.79c-6.63-4.57-8.63-11.19-8.63-11.19,0,0-.09-.39,0-.96-2.3,1.51-1.83,3.63-1.83,3.63,0,0,2,6.62,8.63,11.19,6.63,4.57,13,3.72,13.66.72.06-.26.06-.5.04-.74-2.47,1.1-7.09.63-11.86-2.66Z"/>
          <path class="cls-15" d="M239.28,221.86s2.15-11.59,19.22-14.78c17.07-3.18,26.41,2.94,27.76,11.49,1.35,8.55-5.61,16.5-13.53,12.4-7.92-4.09-13.65-4.28-16.65-2.46s-8.92,6.77-13.83,3.57c-4.91-3.2-2.97-10.22-2.97-10.22Z"/>
          <path class="cls-2" d="M258.5,207.09c-7.68,1.43-12.34,4.57-15.14,7.58,3.6.97,10.46,2.13,20.05.61,11.77-1.86,15.84-3.01,17.69-5.12-4.59-3.46-12.14-5.02-22.61-3.06Z"/>
          <path class="cls-7" d="M276.52,220.72c-6.28-3.43-11.07-.64-11.07-.64,0,0-4.93-2.28-10.71,1.43-5.74,3.69-5.32,10.76-5.32,10.86,2.64-1.04,5.06-2.88,6.65-3.84,3-1.82,8.74-1.64,16.65,2.46,1.59.82,3.13,1.15,4.58,1.1,2.24-.65,3.74-1.1,3.79-1.12,0,0,0,0,0,0,0-.03,1.68-6.81-4.59-10.23Z"/>
          <path class="cls-12" d="M265.46,220.08s-2.57,2-3.57,3.71"/>
          <path class="cls-12" d="M255.04,236.71s4.9-3.86,10.34-2.86"/>
          <path class="cls-24" d="M253.92,178.35l6.69-2c.14.65.22,1.32.22,2,0,4.41-3.12,8.03-6.9,8.03s-6.9-3.63-6.9-8.03,3.12-8.03,6.9-8.03c1.3,0,2.58.43,3.68,1.24l-3.68,6.8Z"/>
          <path class="cls-4" d="M253.92,178.35l3.68-6.8c-1.1-.81-2.38-1.24-3.68-1.24-.46,0-.91.06-1.35.16-.98,1.39-1.57,3.16-1.57,5.07,0,4.41,3.12,8.03,6.9,8.03.46,0,.91-.06,1.35-.16.98-1.39,1.57-3.16,1.57-5.07,0-.67-.07-1.34-.22-2l-6.69,2Z"/>
          <path class="cls-24" d="M207.48,177.19l6.69-2c.14.65.22,1.32.22,2,0,4.41-3.12,8.03-6.9,8.03s-6.9-3.63-6.9-8.03,3.12-8.03,6.9-8.03c1.3,0,2.58.43,3.68,1.24l-3.68,6.8Z"/>
          <path class="cls-4" d="M207.48,177.19l3.68-6.8c-1.1-.81-2.38-1.24-3.68-1.24-.37,0-.73.04-1.08.11-1.09,1.42-1.76,3.28-1.76,5.32,0,4.41,3.12,8.03,6.9,8.03.37,0,.73-.04,1.08-.11,1.09-1.42,1.75-3.28,1.75-5.32,0-.67-.07-1.34-.22-2l-6.69,2Z"/>
          <path class="cls-12" d="M222.83,125.29s8.56,6.03,13.59,14.62"/>
          <g>
            <path class="cls-4" d="M191.47,154.97c-2.65,0-4.83-1.15-5.97-3.15-.89-1.56-1-3.41-.28-4.62.84-1.41,2.35-2.32,4.09-3.38,1.04-.62,2.21-1.33,3.41-2.24.49-.54,3.89-4.24,5.16-5.59.28-.3.79-.65,1.62-.65,1.33,0,3.04.94,4.37,2.39,1.25,1.36,1.87,2.88,1.74,4.26-.32,3.61-4.86,11.38-12.03,12.76-.74.14-1.45.21-2.12.21Z"/>
            <path class="cls-24" d="M199.51,136.34c1.92,0,5.36,2.92,5.12,5.57-.28,3.15-4.56,10.59-11.22,11.87-.7.13-1.34.2-1.93.2-5.08,0-6.44-4.5-5.39-6.26,1.17-1.97,4.07-2.91,7.32-5.39,0,0,3.85-4.19,5.21-5.64.22-.23.53-.34.89-.34M199.51,134.34h0c-.93,0-1.76.34-2.35.97-1.24,1.32-4.43,4.79-5.11,5.53-1.14.85-2.26,1.53-3.25,2.13-1.86,1.12-3.47,2.09-4.44,3.72-.91,1.53-.8,3.74.27,5.63,1.32,2.33,3.82,3.66,6.84,3.66.74,0,1.51-.08,2.31-.23,7.65-1.47,12.49-9.79,12.84-13.66.15-1.67-.56-3.45-2-5.02-1.2-1.31-3.18-2.72-5.11-2.72h0Z"/>
          </g>
          <path class="cls-24" d="M200.81,136.67c.62.87,1.01,1.85.93,2.8-.28,3.15-4.56,10.59-11.22,11.87-1.71.33-3.1.21-4.2-.16.95,1.8,3.18,3.35,7.1,2.59,6.67-1.28,10.94-8.72,11.22-11.87.19-2.11-1.97-4.4-3.82-5.23Z"/>
          <path class="cls-24" d="M305.09,172.94s15.1,7.59,23.05,1.23l-2.88,6.13s-4.08-1.98-11.47.55l-8.69-7.91Z"/>
          <path class="cls-24" d="M317.55,145.15s8.47,4.03,10.89-2.33c0,0,1.38,9.9-.77,15.52l-10.12-13.19Z"/>
          <path class="cls-24" d="M227.39,100.24c.36,0-5.75,6.54,2.93,9.02l-18.05,1.08s10.72-10.1,15.12-10.1Z"/>
          <path class="cls-24" d="M233.14,89.41s1.13,5.17,14.44,4.22c13.31-.95,16.7-8.73,16.7-8.73l3.52,8.12s-24.02.05-34.65,4.63l-4.12,1.8,4.12-10.04Z"/>
          <path class="cls-24" d="M294.66,239.92c.58.01,1.18-9.85,9.42-14.23,8.23-4.38,19.62-1.9,19.62-1.9l-5.36-7.78s-7.95,1.2-12.11.6c0,0-6,13.49-16.21,18.6l-.66,1.51s2.53,3.15,5.3,3.21Z"/>
          <path class="cls-20" d="M224.02,185.65c-1.07.36-2.04,1.13-2.48,2.17s-.31,2.35.46,3.18c.63.68,1.57.98,2.49,1.09,1.27.16,2.62,0,3.72-.67,1.09-.67,1.87-1.93,1.75-3.21-.24-2.66-3.92-3.24-5.94-2.56Z"/>
          <path class="cls-20" d="M288.85,208.43c.57,1.55,1.46,3.24,3.06,3.62,1.76.42,3.48-1.02,4.22-2.67.78-1.75.81-3.8.15-5.59-.66-1.79-1.99-3.32-3.65-4.27-1.2-.69-2.6-1.1-3.97-.91-1.37.18-2.69,1.01-3.25,2.27-.66,1.48-.08,2.64.96,3.6,1.28,1.19,1.86,2.27,2.47,3.96Z"/>
          <path class="cls-20" d="M295.37,224.07c1.05-.85,1.87-1.99,2.35-3.25.66-1.75.51-4.49-1.76-4.92-1.52-.29-2.71.66-3.1,2.02-.41,1.42-.4,3.09-.7,4.56-.49,2.36,1.36,3.1,3.21,1.6Z"/>
          <path class="cls-18" d="M290.75,169.58c2.31,1.78,3.74,4.43,5.28,6.9,1.99,3.19,4.34,6.28,7.52,8.28,2.13,1.35,4.69,2.27,6.09,4.37,1.32,1.98,1.27,4.65.35,6.85-.92,2.19-2.61,3.98-4.41,5.53-2.14,1.84-4.55,3.45-7.25,4.28-2.7.83-5.74.83-8.26-.44-2.71-1.36-4.55-3.95-6.26-6.46-2.5-3.68-4.97-7.41-6.73-11.49-1.4-3.26-2.35-6.88-1.61-10.35.8-3.77,3.55-5.44,6.34-7.67,2.63-2.09,6.28-1.85,8.94.19Z"/>
          <path class="cls-24" d="M286.43,167.94s9.81-1.02,15.32,4c5.51,5.02,4.78,13.45,4.78,13.45l2.86-1.97.78-5.37s-13.1-13.49-21.7-15.34l-2.05,5.23Z"/>
          <path class="cls-24" d="M250.16,143.57s-4.27,3.27-10.42.88c0,0-5.78,3.67-19.72-.25-13.94-3.92-13.67-12.56-13.67-12.56,0,0-1.06,11.98,17.19,18.69,18.25,6.71,29.8-1.78,29.8-1.78l-3.18-4.98Z"/>
          <path class="cls-30" d="M289.54,176.02c.69.66,1.59,1.06,2.32,1.67,2.3,1.93,2.45,5.32,3.28,8.2.27.94.65,1.88,1.3,2.61.65.73,1.62,1.24,2.6,1.14,1.2-.12,2.17-1.13,2.6-2.26.43-1.13.43-2.37.42-3.58-.71.47-1.5.97-2.35.86-1.51-.19-2.1-2.02-2.41-3.51-.44-2.15-1.14-4.52-3.07-5.57-1.28-.69-3.06-.78-3.73-2.08-.19-.37-.25-.79-.44-1.17-.18-.37-.56-.71-.97-.64-1.52.25-.17,3.73.44,4.31Z"/>
          <path class="cls-30" d="M233.41,122.22c1.52.3,2.89,1.15,4.03,2.21,1.5,1.41,2.64,3.2,3.27,5.15.25.77.34,1.79-.35,2.22-.71.45-1.61-.13-2.27-.64-1.98-1.54-4.18-2.79-6.51-3.7-.95-.37-1.97-.72-2.58-1.54-.62-.83-.43-2.27.35-2.94,1.02-.88,2.82-1.01,4.07-.77Z"/>
          <path class="cls-30" d="M218.04,128.05c2.64.99,4.95,2.74,6.81,4.85.48.54.93,1.13,1.16,1.82.22.69.18,1.5-.28,2.06-.59.72-1.68.82-2.56.53-.88-.29-1.61-.9-2.37-1.44-1.98-1.39-4.26-2.34-6.64-2.75-1.09-.19-2.21-.27-3.23-.68-2-.79-3.24-3.74-.85-4.9,2.21-1.08,5.83-.29,7.98.51Z"/>
          <path class="cls-24" d="M273.9,94.22s9.94,3.52,8.04,13.06l8.37-8.62s-10.97-5.44-16.41-4.44Z"/>
          <path class="cls-27" d="M320.6,96.66c2.67-.53,5.75-.51,7.74,1.35,1.32,1.24,1.91,3.11,1.93,4.92.02,1.81-.47,3.58-1.02,5.31-1.08,3.37-2.41,6.66-3.99,9.83-.72,1.44-1.72,3.03-3.32,3.21-1.58.18-3-1.24-3.35-2.79-.35-1.55.11-3.17.65-4.66.55-1.49,1.2-2.99,1.25-4.59.08-2.36-1.31-4.71-3.42-5.78-1.53-.78-5.34-1.59-3.98-4.09,1.12-2.04,5.51-2.31,7.5-2.71Z"/>
          <path class="cls-27" d="M294.33,102.83c-.46.55-.91,1.28-.66,1.96.25.67,1.07.94,1.78.94,1.38,0,2.67-.63,3.89-1.26,2.12-1.1,4.23-2.24,6.31-3.42,1.33-.75,2.25-2.16.64-3.23-1.24-.82-2.51-.47-3.77-.02-3.16,1.13-5.98,2.4-8.19,5.04Z"/>
          <path class="cls-27" d="M287.53,125.93c5.7,3.14,10.8,7.11,15.72,11.21,5.55,4.62,11.01,9.55,14.39,15.65.62,1.12,1.18,2.31,1.19,3.56s-.64,2.55-1.88,3.05c-1.71.69-3.67-.35-5.16-1.42-10.11-7.28-16.86-18.55-28.54-23.48-5.37-2.27-11.5-3.04-16.34-6.15-1.07-.69-2.09-1.51-2.71-2.56-2.64-4.46,3.66-6.07,7.28-5.49,5.69.92,11.08,2.91,16.05,5.64Z"/>
          <path class="cls-27" d="M246.57,116.54c-.56.79-.63,1.86-.36,2.79.27.93.84,1.75,1.5,2.46.89.98,2.1,1.86,3.4,1.69.97-.13,1.77-.82,2.5-1.47.79-.71,1.58-1.42,2.38-2.13.25-.23.52-.48.6-.81.12-.55-.32-1.05-.75-1.4-1.89-1.55-7.37-3.82-9.26-1.12Z"/>
          <path class="cls-27" d="M261.47,97.19c-1.02.37-2.15,1.11-2.09,2.19.05.88.89,1.48,1.65,1.92,2.05,1.18,4.23,2.15,6.47,2.89,1.18.39,2.41.73,3.65.65,1.24-.08,2.51-.63,3.18-1.68.66-1.03.62-2.42.06-3.51-2.25-4.43-9.05-3.88-12.92-2.46Z"/>
          <path class="cls-26" d="M252.61,76.4c-1.59-.35-3.28.08-4.72.84-1.44.77-2.68,1.85-3.9,2.93-.97.86-2.03,1.94-1.84,3.22.11.75.66,1.38,1.32,1.75.65.38,1.41.54,2.16.66,2.39.39,4.88.42,7.17-.36,1.65-.57,5-2.48,5.06-4.58.06-1.87-3.68-4.13-5.26-4.48Z"/>
          <path class="cls-30" d="M312.83,233.68c1.97.14,3.96-.27,5.82-.94,1.39-.5,2.82-1.24,3.45-2.57.33-.7.35-1.66-.24-2.15-.76-.63-1.88-.15-2.77.28-3.33,1.59-6.44,1.58-10.01,1.55-1.58-.02-1.91,1.12-.83,2.19,1.13,1.12,3.07,1.54,4.6,1.65Z"/>
        </g>
      </g>
      <g>
        <path class="cls-30" d="M125.59,383.84c-9.59,1.03-10.43,1.87-11.46,11.46-1.03-9.59-1.87-10.43-11.46-11.46,9.59-1.03,10.43-1.87,11.46-11.46,1.03,9.59,1.87,10.43,11.46,11.46Z"/>
        <path class="cls-16" d="M375.6,232.36c-6.59.71-7.17,1.28-7.87,7.87-.71-6.59-1.28-7.17-7.87-7.87,6.59-.71,7.17-1.28,7.87-7.87.71,6.59,1.28,7.17,7.87,7.87Z"/>
        <path class="cls-16" d="M182.86,113.6c-6.59.71-7.17,1.28-7.87,7.87-.71-6.59-1.28-7.17-7.87-7.87,6.59-.71,7.17-1.28,7.87-7.87.71,6.59,1.28,7.17,7.87,7.87Z"/>
        <path class="cls-30" d="M405.87,167.2c-6.59.71-7.17,1.28-7.87,7.87-.71-6.59-1.28-7.17-7.87-7.87,6.59-.71,7.17-1.28,7.87-7.87.71,6.59,1.28,7.17,7.87,7.87Z"/>
        <path class="cls-29" d="M374.26,67.79c-17.54,1.88-19.07,3.41-20.95,20.95-1.88-17.54-3.41-19.07-20.95-20.95,17.54-1.88,19.07-3.41,20.95-20.95,1.88,17.54,3.41,19.07,20.95,20.95Z"/>
        <path class="cls-24" d="M146.32,166.81c-10.11,1.09-10.99,1.97-12.07,12.07-1.09-10.11-1.97-10.99-12.07-12.07,10.11-1.09,10.99-1.97,12.07-12.07,1.09,10.11,1.97,10.99,12.07,12.07Z"/>
        <path class="cls-22" d="M385.83,353.06c-13.02,1.4-14.15,2.53-15.55,15.55-1.4-13.02-2.53-14.15-15.55-15.55,13.02-1.4,14.15-2.53,15.55-15.55,1.4,13.02,2.53,14.15,15.55,15.55Z"/>
        <path class="cls-22" d="M216.13,316.67c-13.02,1.4-14.15,2.53-15.55,15.55-1.4-13.02-2.53-14.15-15.55-15.55,13.02-1.4,14.15-2.53,15.55-15.55,1.4,13.02,2.53,14.15,15.55,15.55Z"/>
      </g>
      <path class="cls-20" d="M307.41,212.34c1.51,1.22,3.61,1.68,5.49,1.2.43-.11.86-.27,1.18-.58.32-.31.5-.79.36-1.21-.18-.51-.76-.77-1.3-.83-.54-.07-1.1,0-1.62-.17-1.13-.35-1.69-1.58-2.17-2.66-.48-1.08-1.2-2.27-2.38-2.4-3.94-.42-.86,5.6.44,6.65Z"/>
    </g>
  </g>
</svg>